<svg width="49" height="49" viewBox="0 0 49 49" fill="none" xmlns="http://www.w3.org/2000/svg">
<circle cx="24.6811" cy="24.7768" r="21.6362" stroke="#D9D9D9" stroke-width="5"/>
<path d="M21.5208 23.0455C20.9766 22.4154 20.185 22.0271 19.3069 22.0271C17.6681 22.0271 16.3386 23.3956 16.3386 25.0823C16.3386 26.7691 17.6681 28.1376 19.3069 28.1376C20.185 28.1376 20.9766 27.7493 21.5208 27.1192C22.0711 26.489 23.0049 26.4317 23.6171 26.9982C24.2294 27.5647 24.2788 28.5258 23.7346 29.156C22.6524 30.4035 21.0693 31.1928 19.3131 31.1928C16.0356 31.1928 13.3765 28.4558 13.3765 25.0823C13.3765 21.7089 16.0356 18.9719 19.3131 18.9719C21.0693 18.9719 22.6524 19.7612 23.7346 21.0087C24.2788 21.6389 24.2294 22.6064 23.6171 23.1665C23.0049 23.7266 22.065 23.6757 21.5208 23.0455Z" fill="#D9D9D9"/>
<path d="M31.1801 22.0271C29.5414 22.0271 28.2118 23.3956 28.2118 25.0823C28.2118 26.7691 29.5414 28.1376 31.1801 28.1376C32.0583 28.1376 32.8498 27.7493 33.394 27.1192C33.9444 26.489 34.8782 26.4317 35.4904 26.9982C36.1026 27.5647 36.1521 28.5258 35.6079 29.156C34.5257 30.4035 32.9426 31.1928 31.1863 31.1928C27.9088 31.1928 25.2497 28.4558 25.2497 25.0823C25.2497 21.7089 27.9088 18.9719 31.1863 18.9719C32.9426 18.9719 34.5257 19.7612 35.6079 21.0087C36.1521 21.6389 36.1026 22.6064 35.4904 23.1665C34.8782 23.7266 33.9382 23.6757 33.394 23.0455C32.8498 22.4154 32.0583 22.0271 31.1801 22.0271Z" fill="#D9D9D9"/>
</svg>
