<svg width="224" height="359" viewBox="0 0 224 359" fill="none" xmlns="http://www.w3.org/2000/svg">
<path d="M174.469 334.298C172.504 333.985 91.7477 334.175 51.1216 334.31L56.4803 324.766L49.112 314.329L51.1216 307.531L45.361 303.411V298.673L40.1362 292.905V285.558V240.789L43.3514 235.57L41.7438 227.193L43.3514 216.687L49.112 207.555L45.361 204.396C45.9078 201.874 45.8259 200.556 45.361 198.285H187.768V203.229L182.945 209.477L190.18 214.627L187.768 238.248V254.178V265.233L185.089 275.464L187.768 293.18L182.945 296.133L176.113 314.329L169.147 324.766C170.827 327.888 174.088 333.874 174.469 334.298C174.493 334.302 174.506 334.306 174.506 334.31C174.506 334.33 174.493 334.325 174.469 334.298Z" fill="#6C6F76"/>
<path d="M176.674 242.944C175.883 243.516 174.3 245.225 174.3 247.478C174.3 250.295 177.249 252.494 176.674 255.723C176.346 257.563 175.001 259.978 173.829 261.769M158.332 277.434C160.502 276.959 162.787 273.959 164.577 271.113M164.577 271.113C165.634 269.432 166.52 267.805 167.107 266.785C168.373 264.586 170.992 263.99 172.142 263.968L172.574 263.555C172.912 263.114 173.356 262.492 173.829 261.769M164.577 271.113C165.253 272.579 166.518 275.895 166.172 277.434M173.829 261.769C173.581 265.342 175.595 266.464 175.739 266.51" stroke="#322E3C"/>
<path d="M58.4952 254.211C57.704 253.639 56.1215 251.93 56.1215 249.677C56.1215 246.86 59.0706 244.661 58.4952 241.432C58.1672 239.592 56.8221 237.177 55.6507 235.386M40.1533 219.721C42.3238 220.196 44.6079 223.196 46.3982 226.042M46.3982 226.042C47.4558 227.723 48.341 229.35 48.9286 230.37C50.1946 232.569 52.8128 233.164 53.9637 233.187L54.3952 233.599C54.7331 234.041 55.1778 234.663 55.6507 235.386M46.3982 226.042C47.0738 224.576 48.3388 221.26 47.9936 219.721M55.6507 235.386C55.4022 231.813 57.4162 230.691 57.5601 230.645" stroke="#322E3C"/>
<path d="M46.7254 293.447C47.6357 293.825 49.5956 295.128 50.1526 297.318C50.8487 300.055 48.5264 302.857 49.8836 305.865C50.657 307.579 52.5608 309.622 54.1418 311.099M73.0726 322.827C70.8461 322.854 67.885 320.454 65.4421 318.092M65.4421 318.092C63.999 316.697 62.7367 315.316 61.9134 314.457C60.1399 312.606 57.4486 312.618 56.3246 312.855L55.8033 312.552C55.3659 312.199 54.7802 311.695 54.1418 311.099M65.4421 318.092C65.1478 319.669 64.7381 323.177 65.4539 324.594M54.1418 311.099C55.2662 314.514 53.5865 316.059 53.458 316.136" stroke="#322E3C"/>
<path d="M48.4966 281.969C50.6257 278.671 53.4597 277.434 54.6105 277.228C55.3298 277.571 57.0993 278.052 58.4228 277.228C59.7462 276.403 61.7555 275.235 62.5946 274.754" stroke="#322E3C"/>
<path d="M171.352 309.657C169.222 306.359 166.388 305.122 165.238 304.916C164.518 305.26 162.749 305.741 161.425 304.916C160.102 304.092 158.093 302.924 157.254 302.443" stroke="#322E3C"/>
<path d="M55.2581 334.322L21.3077 334.391C19.1054 330.438 18.3075 328.335 17.5674 324.772C18.3324 319.003 19.1681 317.378 20.5165 313.917C19.8349 312.709 19.6778 312.066 19.7252 310.962C19.8254 308.751 20.2728 307.661 21.3077 305.809C21.8682 304.425 22.1926 303.655 23.5375 302.786L22.2428 300.038L25.1918 295.229C25.1695 294.089 24.4921 293.723 24.4725 292.618C23.854 262.241 26.4847 243.347 26.8462 213.606C24.7345 211.806 24.166 210.765 23.8971 208.866C24.7575 206.609 25.4582 205.538 27.4216 204.262C26.1571 202.889 25.7606 202.073 25.5515 200.552C25.8065 198.722 26.2633 197.895 27.4216 196.636L52.1651 198.216C52.4625 200.604 52.4451 201.522 52.1651 204.331C53.1017 205.629 53.3264 206.315 54.1791 207.491C52.9502 210.915 52.3212 213.289 51.0862 216.629C50.7794 221.981 50.5329 223.614 50.2231 227.21C50.4981 230.091 50.8574 231.937 51.0862 235.523C50.3774 237.732 50.0359 238.718 49.3599 240.814V292.893C50.4733 294.966 51.1444 296.603 52.1651 298.664C52.1978 300.529 52.1762 301.336 52.1651 303.405L55.2581 307.527C54.8073 310.182 54.6405 311.408 54.1791 314.329C55.6259 317.689 56.1747 320.172 58.1352 324.772C56.9076 328.862 56.2792 330.873 55.2581 334.322Z" fill="#83868F"/>
<path d="M170.903 334.322L204.853 334.391C207.056 330.438 207.854 328.335 208.594 324.772C207.829 319.003 206.993 317.378 205.645 313.917C206.326 312.709 206.483 312.066 206.436 310.962C206.336 308.751 205.888 307.661 204.853 305.809C204.293 304.425 203.969 303.655 202.624 302.786L203.918 300.038L200.969 295.229C200.992 294.089 201.669 293.723 201.689 292.618C202.307 262.241 199.676 243.347 199.315 213.606C201.427 211.806 201.995 210.765 202.264 208.866C201.404 206.609 200.703 205.538 198.74 204.262C200.004 202.889 200.401 202.073 200.61 200.552C200.355 198.722 199.898 197.895 198.74 196.636L173.996 198.216C173.699 200.604 173.716 201.522 173.996 204.331C173.059 205.629 172.835 206.315 171.982 207.491C173.211 210.915 173.84 213.289 175.075 216.629C175.382 221.981 175.628 223.614 175.938 227.21C175.663 230.091 175.304 231.937 175.075 235.523C175.784 237.732 176.125 238.718 176.801 240.814V292.893C175.688 294.966 175.017 296.603 173.996 298.664C173.963 300.529 173.985 301.336 173.996 303.405L170.903 307.527C171.354 310.182 171.521 311.408 171.982 314.329C170.535 317.689 169.986 320.172 168.026 324.772C169.254 328.862 169.882 330.873 170.903 334.322Z" fill="#83868F"/>
<rect x="21.147" y="175.062" width="180.685" height="24.3218" fill="#5C5E64"/>
<rect x="19.8525" y="334.047" width="186.152" height="24.3218" fill="#5C5E64"/>
<rect x="15.105" y="145.381" width="193.488" height="29.6809" fill="#6C6F76"/>
<path d="M101.722 92.3336C99.9282 86.1807 129.992 83.9511 128.048 90.6847C126.105 97.4182 103.516 98.4865 101.722 92.3336Z" fill="#322E3C" stroke="black"/>
<path d="M92.3016 168.123C89.8878 165.393 88.8598 163.548 87.6262 159.604C87.8521 153.925 88.5558 151.115 90.0718 146.275L92.3016 142.152C89.2239 147.48 87.253 150.534 86.3315 155.275C88.0792 161.012 88.1222 162.838 86.3315 163.314C85.375 168.066 85.868 168.417 86.3315 169.978C82.6905 168.876 81.6643 166.901 81.6561 161.115C80.3986 158.424 80.4033 157.318 80.2895 155.275C80.7081 153.373 80.9573 152.299 81.6561 150.26C82.8547 147.623 84.0835 146.365 86.3315 144.145C83.5615 146.27 82.0935 147.088 78.4913 152.87C81.3207 158.708 80.4173 159.336 79.4263 161.115C78.2946 163.524 78.7608 164.541 79.4263 166.405C74.8256 165.229 73.6682 163.175 74.0317 157.13C74.1023 155.813 74.1743 154.709 74.2905 153.677L72.8089 156.031L71.9458 157.13C69.6307 159.042 70.0254 160.107 70.1475 162.008C67.0779 159.503 66.4073 157.603 68.0616 152.87C68.7316 149.888 69.3423 148.415 71.0107 146.275C71.3147 146.078 71.6123 145.887 71.9044 145.7C69.0615 147.149 66.6158 148.19 64.3213 148.817C60.8992 149.886 58.9461 150.299 55.3302 150.26C53.0993 150.192 51.8811 150.05 50.2233 148.13C46.6543 152.779 47.652 155.219 48.8566 159.604C42.5942 154.654 40.9398 150.879 45.7637 139.954C43.4404 144.865 42.2937 147.274 41.8076 148.13C41.1823 148.625 40.3597 149.006 37.9234 148.13C37.7302 153.611 37.3905 155.737 36.7982 159.443L36.7726 159.604C29.8166 150.991 29.7584 146.372 37.9234 138.58C44.3599 137.895 47.9929 137.557 55.3302 138.58C57.1841 140.001 58.5382 140.683 63.0985 141.122C69.9687 139.287 73.3745 137.735 78.4913 133.839C68.8391 137.24 64.3148 137.511 57.7039 135.419C50.057 131.095 47.0498 127.583 52.0215 112.54C55.2458 107.074 57.592 104.36 63.0985 100.379C46.1198 108.874 37.1438 114.058 36.7726 135.419C15.507 145.887 17.2093 161.643 31.1621 197.667C-10.0381 137.774 -19.9749 96.1064 61.4441 27.345C64.2863 40.031 64.6657 47.6015 87.6262 52.6974C108.159 34.9616 118.735 36.188 136.394 52.6974C152.456 49.0081 156.86 42.9466 159.195 27.345C245.722 80.7643 233.267 124.726 187.248 194.231C204.677 165.926 204.948 152.643 187.248 133.839C183.692 125.165 182.004 120.155 176.242 112.54C174.129 100.765 170.741 96.3475 163.151 90.0046C179.704 114.02 181.548 122.397 167.971 125.8C161.855 127.367 157.979 127.785 148.406 125.8C139.19 137.551 147.752 138.851 163.151 141.122C165.546 139.459 166.909 138.573 171.136 141.122C174.632 139.859 176.851 140.082 180.99 141.122C186.268 140.762 188.42 141.171 191.923 142.152C195.675 150.064 194.132 153.171 190.053 158.229C189.735 152.185 189.149 149.381 186.025 147.374C185.05 154.686 183.283 156.478 179.767 158.985C180.771 153.877 180.71 151.267 175.379 148.748C173.988 156.259 172.947 157.252 171.136 159.604C168.673 152.119 167.198 149.483 164.446 147.374H156.534L157.253 154.382C159.618 160.122 158.173 161.854 154.736 164.482C154.613 161.954 154.548 160.539 154.736 158.229C153.726 158.618 153.255 158.578 152.506 158.229C151.693 158.043 151.395 156.063 151.067 150.26C149.356 148.221 148.715 146.827 147.831 144.145C146.591 144.031 146.003 143.732 145.264 142.897C150.134 148.596 151.653 151.967 151.067 158.229C151.625 163.967 150.82 165.404 148.406 166.405C147.161 162.711 146.435 161.245 145.097 159.604C144.462 157.181 144.522 155.234 145.097 151.084C142.596 148.118 141.372 146.025 139.761 143.151C142.94 148.94 144.321 152.737 144.234 158.985C144.053 162.272 143.817 164.095 141.717 167.092C139.476 164.178 138.843 162.394 138.624 158.985C137.672 151.021 135.424 148.561 130.855 144.832C131.147 152.659 130.379 155.085 126.612 154.382C124.809 155.622 123.953 156.783 122.656 159.604C119.228 157.922 119.793 155.501 123.159 149.779C123.845 145.627 124.664 143.593 127.834 141.122C131.513 134.725 132.512 131.067 133.589 124.495C118.795 119.181 110.496 118.932 95.6823 125.8C98.8461 133.068 101.462 137.503 108.126 146.275C117.435 149.221 119.387 151.548 115.966 157.13C114.685 154.906 113.725 154.228 111.435 154.382C105.054 156.599 104.266 152.557 102.372 146.275C94.2842 149.659 93.7731 152.501 95.6823 158.229C93.524 163.546 93.0468 165.257 92.3016 168.123Z" fill="#322E3C"/>
<path d="M94.6753 37.3072C74.3144 37.7243 70.1895 27.5507 64.7529 6.66446C79.402 14.9494 86.9234 17.9694 95.6104 12.2296C96.6081 7.02641 97.519 4.21072 104.817 0.824469C103.461 4.33892 103.181 6.22243 103.235 9.48139C110.602 7.63294 114.153 7.94798 120.066 9.48139C121.042 6.69176 121.153 4.40804 121.145 0C125.467 3.19282 127.254 5.52569 127.475 12.2296C131.727 13.3704 133.546 14.3006 134.308 17.2451C142.19 13.1749 147.168 10.9175 156.534 6.80187C152.557 29.7125 146.518 36.1192 129.705 37.3072C128.595 39.7108 128.955 41.806 130.424 46.1703C128.982 47.0498 127.825 47.3151 125.389 47.5444C120.995 52.8561 118.061 54.0785 112.37 54.5524C106.361 53.8471 103.369 52.0116 98.3437 47.5444C96.5888 47.5215 95.6835 47.2027 94.1718 46.1703C95.6083 42.1298 95.5238 40.2802 94.6753 37.3072Z" fill="#322E3C"/>
<path d="M96.7612 26.1082C101.679 24.4613 103.715 25.2188 106.4 28.7878C103.768 31.442 98.2784 29.7529 96.7612 26.1082Z" fill="#B31919"/>
<path d="M127.043 26.1082C122.125 24.4613 120.089 25.2188 117.405 28.7878C120.036 31.442 125.526 29.7529 127.043 26.1082Z" fill="#B31919"/>
</svg>
