<svg width="433" height="283" viewBox="0 0 433 283" fill="none" xmlns="http://www.w3.org/2000/svg">
<g id="garg-broad">
<path id="Vector 48" d="M382.848 258.253C382.848 257.924 154.325 257.841 52.8543 257.979L55.0528 248.978V238.466V232.695L47.1941 227.411V222.673L34.3037 216.905V209.558V164.788L42.2363 159.57L38.27 151.193L42.2363 140.687L56.4488 131.554L47.1941 128.396C48.5434 125.874 48.3413 124.556 47.1941 122.285H398.541V127.229L386.642 133.477L404.49 138.627L398.541 162.248V178.178V189.233L391.93 199.464L398.541 217.18L386.642 220.132L385.371 238.658L381.405 248.703C385.812 252.022 382.848 258.583 382.848 258.253Z" fill="#6C6F76"/>
<path id="Vector 49" d="M383.947 166.943C383.191 167.516 381.68 169.224 381.68 171.478C381.68 174.295 384.497 176.493 383.947 179.723C383.634 181.563 382.349 183.977 381.23 185.769M366.427 201.434C368.5 200.959 370.682 197.958 372.392 195.113M372.392 195.113C373.402 193.432 374.248 191.805 374.809 190.784C376.019 188.586 378.519 187.99 379.619 187.967L380.031 187.555C380.354 187.114 380.778 186.492 381.23 185.769M372.392 195.113C373.038 196.578 374.246 199.895 373.916 201.434M381.23 185.769C380.993 189.341 382.917 190.464 383.054 190.509" stroke="#322E3C"/>
<path id="Vector 71" d="M60.0844 178.211C59.3287 177.639 57.8171 175.93 57.8171 173.677C57.8171 170.86 60.6341 168.661 60.0844 165.432C59.7712 163.592 58.4863 161.177 57.3674 159.386M42.5645 143.721C44.6376 144.196 46.8194 147.196 48.5295 150.042M48.5295 150.042C49.5397 151.723 50.3852 153.35 50.9466 154.37C52.1558 156.569 54.6567 157.164 55.756 157.187L56.1682 157.599C56.491 158.041 56.9157 158.663 57.3674 159.386M48.5295 150.042C49.1749 148.576 50.3832 145.26 50.0534 143.721M57.3674 159.386C57.1301 155.813 59.0538 154.691 59.1912 154.645" stroke="#322E3C"/>
<path id="Vector 70" d="M48.8424 217.447C49.7119 217.825 51.584 219.128 52.116 221.318C52.781 224.055 50.5627 226.857 51.8591 229.865C52.5979 231.579 54.4164 233.622 55.9265 235.099M74.009 246.827C71.8822 246.854 69.0539 244.454 66.7204 242.092M66.7204 242.092C65.342 240.697 64.1363 239.316 63.3499 238.457C61.6558 236.606 59.0851 236.618 58.0114 236.855L57.5135 236.552C57.0957 236.199 56.5362 235.695 55.9265 235.099M66.7204 242.092C66.4393 243.669 66.048 247.177 66.7317 248.594M55.9265 235.099C57.0005 238.514 55.3961 240.059 55.2733 240.136" stroke="#322E3C"/>
<path id="Vector 50" d="M50.5342 205.968C52.5679 202.67 55.2749 201.434 56.3742 201.228C57.0612 201.571 58.7514 202.052 60.0156 201.228C61.2798 200.403 63.1989 199.235 64.0005 198.754" stroke="#322E3C"/>
<path id="Vector 72" d="M381.955 233.657C379.921 230.359 377.214 229.122 376.115 228.916C375.428 229.26 373.737 229.741 372.473 228.916C371.209 228.092 369.29 226.924 368.488 226.443" stroke="#322E3C"/>
<path id="Vector 54" d="M56.9925 258.322L24.5634 258.391C22.4599 254.437 21.6977 252.335 20.9907 248.772C21.7214 243.003 22.5197 241.377 23.8077 237.916C23.1566 236.709 23.0066 236.066 23.0519 234.962C23.1475 232.751 23.5749 231.661 24.5634 229.809C25.0988 228.425 25.4087 227.655 26.6933 226.786L25.4566 224.038L28.2735 219.228C28.2522 218.089 27.6052 217.723 27.5865 216.618C26.9957 186.241 29.5084 167.346 29.8538 137.606C27.8367 135.806 27.2937 134.765 27.0368 132.865C27.8587 130.608 28.528 129.537 30.4034 128.262C29.1955 126.889 28.8168 126.073 28.6171 124.552C28.8606 122.722 29.297 121.894 30.4034 120.636L54.0382 122.216C54.3222 124.604 54.3056 125.522 54.0382 128.331C54.9328 129.629 55.1474 130.315 55.9619 131.491C54.7881 134.915 54.1873 137.289 53.0076 140.629C52.7146 145.981 52.4791 147.614 52.1831 151.21C52.4458 154.091 52.7891 155.937 53.0076 159.523C52.3305 161.732 52.0044 162.717 51.3587 164.814V216.892C52.4222 218.966 53.0632 220.602 54.0382 222.664C54.0694 224.529 54.0488 225.336 54.0382 227.404L56.9925 231.527C56.562 234.182 56.4027 235.407 55.9619 238.329C57.3439 241.689 57.8681 244.172 59.7408 248.772C58.5681 252.862 57.9679 254.873 56.9925 258.322Z" fill="#83868F"/>
<path id="Vector 59" d="M377.97 258.322L410.399 258.391C412.503 254.437 413.265 252.335 413.972 248.772C413.241 243.003 412.443 241.377 411.155 237.916C411.806 236.709 411.956 236.066 411.911 234.962C411.815 232.751 411.388 231.661 410.399 229.809C409.864 228.425 409.554 227.655 408.269 226.786L409.506 224.038L406.689 219.228C406.71 218.089 407.357 217.723 407.376 216.618C407.967 186.241 405.454 167.346 405.109 137.606C407.126 135.806 407.669 134.765 407.926 132.865C407.104 130.608 406.434 129.537 404.559 128.262C405.767 126.889 406.146 126.073 406.345 124.552C406.102 122.722 405.665 121.894 404.559 120.636L380.924 122.216C380.64 124.604 380.657 125.522 380.924 128.331C380.03 129.629 379.815 130.315 379 131.491C380.174 134.915 380.775 137.289 381.955 140.629C382.248 145.981 382.483 147.614 382.779 151.21C382.517 154.091 382.173 155.937 381.955 159.523C382.632 161.732 382.958 162.717 383.604 164.814V216.892C382.54 218.966 381.899 220.602 380.924 222.664C380.893 224.529 380.914 225.336 380.924 227.404L377.97 231.527C378.4 234.182 378.56 235.407 379 238.329C377.618 241.689 377.094 244.172 375.222 248.772C376.394 252.862 376.995 254.873 377.97 258.322Z" fill="#83868F"/>
<rect id="Rectangle 139" x="24.4102" y="99.062" width="386.951" height="24.3218" fill="#5C5E64"/>
<rect id="Rectangle 141" x="23.1733" y="258.047" width="388.187" height="24.3218" fill="#5C5E64"/>
<g id="Group 109">
<path id="Vector 67" d="M66.0195 62.9372C64.864 58.7882 84.2277 57.2848 82.976 61.8253C81.7243 66.3658 67.175 67.0862 66.0195 62.9372Z" fill="#322E3C" stroke="black"/>
<path id="Vector 60" d="M59.9518 114.043C58.397 112.203 57.735 110.958 56.9404 108.298C57.0859 104.469 57.5391 102.575 58.5156 99.3106L59.9518 96.5309C57.9694 100.124 56.7 102.183 56.1065 105.38C57.2322 109.248 57.2598 110.48 56.1065 110.8C55.4904 114.005 55.8079 114.242 56.1065 115.294C53.7613 114.551 53.1003 113.219 53.0951 109.318C52.2851 107.503 52.2881 106.757 52.2148 105.38C52.4844 104.097 52.6449 103.373 53.0951 101.998C53.8671 100.22 54.6585 99.3719 56.1065 97.8744C54.3223 99.3077 53.3767 99.859 51.0566 103.758C52.879 107.695 52.2971 108.118 51.6589 109.318C50.9299 110.942 51.2302 111.628 51.6589 112.885C48.6956 112.092 47.9501 110.707 48.1842 106.631C48.2297 105.742 48.276 104.998 48.3509 104.302L47.3966 105.889L46.8406 106.631C45.3495 107.92 45.6037 108.638 45.6824 109.92C43.7053 108.231 43.2733 106.949 44.3388 103.758C44.7704 101.747 45.1637 100.754 46.2383 99.3106C46.4342 99.1782 46.6259 99.0492 46.814 98.9232C44.9829 99.8999 43.4076 100.602 41.9297 101.025C39.7256 101.746 38.4675 102.024 36.1386 101.998C34.7017 101.952 33.917 101.856 32.8492 100.561C30.5504 103.697 31.193 105.342 31.9689 108.298C27.9353 104.961 26.8697 102.415 29.9768 95.0483C28.4803 98.3598 27.7418 99.9842 27.4287 100.561C27.0259 100.896 26.4961 101.152 24.9269 100.561C24.8025 104.258 24.5836 105.691 24.2021 108.191L24.1856 108.298C19.7053 102.491 19.6678 99.3766 24.9269 94.1217C29.0726 93.6601 31.4126 93.432 36.1386 94.1217C37.3326 95.0799 38.2048 95.5399 41.1421 95.8359C45.5672 94.5984 47.7609 93.5524 51.0566 90.925C44.8396 93.2182 41.9255 93.4014 37.6674 91.9906C32.7421 89.075 30.8052 86.7064 34.0074 76.563C36.0842 72.877 37.5954 71.0468 41.1421 68.3627C30.2062 74.091 24.4248 77.5865 24.1856 91.9906C10.4885 99.0491 11.5849 109.673 20.572 133.965C-5.96506 93.5785 -12.3653 65.4815 40.0766 19.1147C41.9072 27.6691 42.1515 32.774 56.9404 36.2102C70.1656 24.2508 76.9774 25.0777 88.3516 36.2102C98.6973 33.7225 101.534 29.6352 103.038 19.1147C158.77 55.1361 150.747 84.7801 121.106 131.648C132.333 112.562 132.507 103.605 121.106 90.925C118.816 85.076 117.729 81.6978 114.018 76.563C112.656 68.6228 110.475 65.6441 105.586 61.367C116.248 77.5608 117.435 83.2094 108.69 85.5045C104.751 86.5609 102.254 86.843 96.0885 85.5045C90.1523 93.4283 95.6676 94.305 105.586 95.8359C107.129 94.7147 108.006 94.1175 110.729 95.8359C112.98 94.9845 114.41 95.1346 117.076 95.8359C120.476 95.5931 121.861 95.8694 124.118 96.5309C126.534 101.866 125.541 103.961 122.913 107.372C122.709 103.296 122.331 101.405 120.319 100.052C119.691 104.982 118.553 106.191 116.288 107.882C116.935 104.437 116.895 102.677 113.462 100.978C112.566 106.043 111.895 106.713 110.729 108.298C109.143 103.252 108.192 101.474 106.42 100.052H101.324L101.787 104.777C103.31 108.648 102.379 109.816 100.166 111.588C100.087 109.883 100.045 108.929 100.166 107.372C99.5149 107.634 99.2118 107.607 98.7293 107.372C98.2058 107.246 98.0139 105.911 97.8027 101.998C96.7003 100.623 96.2875 99.6834 95.7179 97.8744C94.9195 97.7975 94.5405 97.5964 94.0649 97.0328C97.2014 100.876 98.1801 103.149 97.8027 107.372C98.1616 111.241 97.6435 112.21 96.0885 112.885C95.2864 110.394 94.8191 109.405 93.9574 108.298C93.5482 106.665 93.5866 105.352 93.9574 102.554C92.3463 100.554 91.5579 99.142 90.5204 97.2038C92.5678 101.108 93.4576 103.668 93.4015 107.882C93.2846 110.098 93.1329 111.327 91.7799 113.348C90.337 111.383 89.9291 110.18 89.7878 107.882C89.1745 102.511 87.7268 100.853 84.7842 98.3377C84.9721 103.615 84.4772 105.252 82.0508 104.777C80.8896 105.614 80.3383 106.396 79.5027 108.298C77.2948 107.164 77.6592 105.532 79.827 101.673C80.2689 98.8738 80.7966 97.5025 82.8384 95.8359C85.2076 91.5227 85.8512 89.056 86.5447 84.6242C77.0162 81.0408 71.6704 80.8732 62.1293 85.5045C64.1671 90.4051 65.852 93.396 70.1442 99.3106C76.14 101.298 77.3975 102.866 75.1941 106.631C74.3686 105.131 73.7503 104.674 72.2754 104.777C68.1657 106.273 67.658 103.547 66.4379 99.3106C61.2288 101.593 60.8995 103.509 62.1293 107.372C60.7391 110.957 60.4317 112.111 59.9518 114.043Z" fill="#322E3C"/>
<g id="Group 108">
<g id="garg_face">
<path id="Vector 61" d="M61.4805 25.8323C48.3661 26.1135 45.7092 19.2533 42.2075 5.16947C51.643 10.7561 56.4875 12.7925 62.0828 8.92214C62.7254 5.41354 63.3121 3.51488 68.0129 1.23149C67.1393 3.60133 66.9588 4.87141 66.9936 7.06897C71.739 5.82253 74.0258 6.03497 77.8347 7.06897C78.4634 5.18788 78.5345 3.64794 78.5296 0.675537C81.3135 2.8285 82.4644 4.40158 82.6066 8.92214C85.3451 9.69137 86.5171 10.3186 87.0079 12.3042C92.0848 9.55957 95.2908 8.03738 101.324 5.26213C98.7618 20.7111 94.8721 25.0312 84.0428 25.8323C83.328 27.453 83.5602 28.8659 84.5061 31.8088C83.5771 32.4018 82.832 32.5807 81.263 32.7354C78.4329 36.3171 76.543 37.1414 72.8775 37.4609C69.0071 36.9853 67.0801 35.7476 63.8433 32.7354C62.7129 32.7199 62.1299 32.505 61.1562 31.8088C62.0814 29.0843 62.027 27.837 61.4805 25.8323Z" fill="#322E3C"/>
<g id="Group 106">
<g id="Group 105">
<path id="Vector 62" d="M62.8237 18.2806C65.9914 17.1701 67.3027 17.6809 69.0318 20.0875C67.3369 21.8773 63.8009 20.7383 62.8237 18.2806Z" fill="#B31919"/>
<path id="Vector 63" d="M82.3281 18.2806C79.1604 17.1701 77.8491 17.6809 76.12 20.0875C77.815 21.8773 81.3509 20.7383 82.3281 18.2806Z" fill="#B31919"/>
</g>
</g>
</g>
</g>
</g>
<g id="Group 111">
<path id="Vector 67_2" d="M354.446 62.9372C353.291 58.7882 372.654 57.2848 371.403 61.8253C370.151 66.3658 355.602 67.0862 354.446 62.9372Z" fill="#322E3C" stroke="black"/>
<path id="Vector 60_2" d="M348.379 114.043C346.824 112.203 346.162 110.958 345.367 108.298C345.513 104.469 345.966 102.575 346.942 99.3106L348.379 96.5309C346.396 100.124 345.127 102.183 344.533 105.38C345.659 109.248 345.687 110.48 344.533 110.8C343.917 114.005 344.235 114.242 344.533 115.294C342.188 114.551 341.527 113.219 341.522 109.318C340.712 107.503 340.715 106.757 340.642 105.38C340.911 104.097 341.072 103.373 341.522 101.998C342.294 100.22 343.085 99.3719 344.533 97.8744C342.749 99.3077 341.803 99.859 339.483 103.758C341.306 107.695 340.724 108.118 340.086 109.318C339.357 110.942 339.657 111.628 340.086 112.885C337.122 112.092 336.377 110.707 336.611 106.631C336.656 105.742 336.703 104.998 336.778 104.302L335.823 105.889L335.267 106.631C333.776 107.92 334.03 108.638 334.109 109.92C332.132 108.231 331.7 106.949 332.766 103.758C333.197 101.747 333.59 100.754 334.665 99.3106C334.861 99.1782 335.053 99.0492 335.241 98.9232C333.41 99.8999 331.834 100.602 330.356 101.025C328.152 101.746 326.894 102.024 324.565 101.998C323.128 101.952 322.344 101.856 321.276 100.561C318.977 103.697 319.62 105.342 320.396 108.298C316.362 104.961 315.296 102.415 318.404 95.0483C316.907 98.3598 316.169 99.9842 315.855 100.561C315.453 100.896 314.923 101.152 313.354 100.561C313.229 104.258 313.01 105.691 312.629 108.191L312.612 108.298C308.132 102.491 308.095 99.3766 313.354 94.1217C317.499 93.6601 319.839 93.432 324.565 94.1217C325.759 95.0799 326.632 95.5399 329.569 95.8359C333.994 94.5984 336.188 93.5524 339.483 90.925C333.266 93.2182 330.352 93.4014 326.094 91.9906C321.169 89.075 319.232 86.7064 322.434 76.563C324.511 72.877 326.022 71.0468 329.569 68.3627C318.633 74.091 312.852 77.5865 312.612 91.9906C298.915 99.0491 300.012 109.673 308.999 133.965C282.462 93.5785 276.061 65.4815 328.503 19.1147C330.334 27.6691 330.578 32.774 345.367 36.2102C358.592 24.2508 365.404 25.0777 376.778 36.2102C387.124 33.7225 389.961 29.6352 391.465 19.1147C447.196 55.1361 439.174 84.7801 409.533 131.648C420.759 112.562 420.934 103.605 409.533 90.925C407.243 85.076 406.156 81.6978 402.445 76.563C401.083 68.6228 398.901 65.6441 394.013 61.367C404.674 77.5608 405.862 83.2094 397.117 85.5045C393.178 86.5609 390.681 86.843 384.515 85.5045C378.579 93.4283 384.094 94.305 394.013 95.8359C395.555 94.7147 396.433 94.1175 399.155 95.8359C401.407 94.9845 402.837 95.1346 405.502 95.8359C408.902 95.5931 410.288 95.8694 412.544 96.5309C414.961 101.866 413.968 103.961 411.34 107.372C411.135 103.296 410.758 101.405 408.745 100.052C408.118 104.982 406.979 106.191 404.715 107.882C405.362 104.437 405.322 102.677 401.889 100.978C400.993 106.043 400.322 106.713 399.155 108.298C397.569 103.252 396.619 101.474 394.847 100.052H389.75L390.214 104.777C391.737 108.648 390.806 109.816 388.592 111.588C388.513 109.883 388.471 108.929 388.592 107.372C387.942 107.634 387.639 107.607 387.156 107.372C386.633 107.246 386.441 105.911 386.229 101.998C385.127 100.623 384.714 99.6834 384.145 97.8744C383.346 97.7975 382.967 97.5964 382.492 97.0328C385.628 100.876 386.607 103.149 386.229 107.372C386.588 111.241 386.07 112.21 384.515 112.885C383.713 110.394 383.246 109.405 382.384 108.298C381.975 106.665 382.013 105.352 382.384 102.554C380.773 100.554 379.985 99.142 378.947 97.2038C380.995 101.108 381.884 103.668 381.828 107.882C381.711 110.098 381.56 111.327 380.207 113.348C378.764 111.383 378.356 110.18 378.215 107.882C377.601 102.511 376.154 100.853 373.211 98.3377C373.399 103.615 372.904 105.252 370.478 104.777C369.316 105.614 368.765 106.396 367.929 108.298C365.722 107.164 366.086 105.532 368.254 101.673C368.696 98.8738 369.223 97.5025 371.265 95.8359C373.634 91.5227 374.278 89.056 374.972 84.6242C365.443 81.0408 360.097 80.8732 350.556 85.5045C352.594 90.4051 354.279 93.396 358.571 99.3106C364.567 101.298 365.824 102.866 363.621 106.631C362.795 105.131 362.177 104.674 360.702 104.777C356.592 106.273 356.085 103.547 354.865 99.3106C349.656 101.593 349.326 103.509 350.556 107.372C349.166 110.957 348.859 112.111 348.379 114.043Z" fill="#322E3C"/>
<g id="Group 108_2">
<g id="garg_face_2">
<path id="Vector 61_2" d="M349.907 25.8323C336.793 26.1135 334.136 19.2533 330.634 5.16947C340.07 10.7561 344.914 12.7925 350.51 8.92214C351.152 5.41354 351.739 3.51488 356.44 1.23149C355.566 3.60133 355.386 4.87141 355.42 7.06897C360.166 5.82253 362.453 6.03497 366.261 7.06897C366.89 5.18788 366.961 3.64794 366.956 0.675537C369.74 2.8285 370.891 4.40158 371.033 8.92214C373.772 9.69137 374.944 10.3186 375.435 12.3042C380.512 9.55957 383.718 8.03738 389.75 5.26213C387.189 20.7111 383.299 25.0312 372.47 25.8323C371.755 27.453 371.987 28.8659 372.933 31.8088C372.004 32.4018 371.259 32.5807 369.69 32.7354C366.86 36.3171 364.97 37.1414 361.304 37.4609C357.434 36.9853 355.507 35.7476 352.27 32.7354C351.14 32.7199 350.557 32.505 349.583 31.8088C350.508 29.0843 350.454 27.837 349.907 25.8323Z" fill="#322E3C"/>
<g id="Group 106_2">
<g id="Group 105_2">
<path id="Vector 62_2" d="M351.25 18.2806C354.418 17.1701 355.729 17.6809 357.459 20.0875C355.764 21.8773 352.228 20.7383 351.25 18.2806Z" fill="#B31919"/>
<path id="Vector 63_2" d="M370.755 18.2806C367.587 17.1701 366.276 17.6809 364.547 20.0875C366.242 21.8773 369.778 20.7383 370.755 18.2806Z" fill="#B31919"/>
</g>
</g>
</g>
</g>
</g>
</g>
</svg>
