<svg width="224" height="402" viewBox="0 0 224 402" fill="none" xmlns="http://www.w3.org/2000/svg">
<rect x="7" y="376" width="205" height="26" fill="#5C5E64"/>
<path d="M182.257 377.969C179.913 377.554 83.5719 377.805 35.1054 377.984L41.4982 365.355L32.708 351.545L35.1054 342.551L28.233 337.099V330.83L22 323.198V313.477V254.239L25.8357 247.334L23.9179 236.25L25.8357 222.349L32.708 210.265L28.233 206.086C28.8854 202.749 28.7878 201.005 28.233 198H198.123V204.542L192.37 212.809L201 219.624L198.123 250.878V271.956V286.584L194.927 300.121L198.123 323.562L192.37 327.469L184.219 351.545L175.908 365.355C177.913 369.486 181.803 377.407 182.257 377.969C182.286 377.974 182.301 377.979 182.301 377.984C182.301 378.01 182.286 378.004 182.257 377.969Z" fill="#6C6F76"/>
<path d="M184.42 255C183.629 255.573 182.047 257.281 182.047 259.535C182.047 262.352 184.996 264.55 184.42 267.779C184.093 269.62 182.747 272.034 181.576 273.825M166.079 289.49C168.249 289.015 170.533 286.015 172.324 283.169M172.324 283.169C173.381 281.488 174.266 279.861 174.854 278.841C176.12 276.642 178.738 276.047 179.889 276.024L180.321 275.612C180.658 275.17 181.103 274.549 181.576 273.825M172.324 283.169C172.999 284.635 174.264 287.951 173.919 289.49M181.576 273.825C181.328 277.398 183.342 278.52 183.485 278.566" stroke="#322E3C"/>
<path d="M43.4952 268.49C42.704 267.918 41.1215 266.209 41.1215 263.956C41.1215 261.139 44.0706 258.94 43.4952 255.711C43.1672 253.871 41.8221 251.456 40.6507 249.665M25.1533 234C27.3238 234.475 29.6079 237.475 31.3982 240.321M31.3982 240.321C32.4558 242.002 33.341 243.629 33.9286 244.649C35.1946 246.848 37.8128 247.443 38.9637 247.466L39.3952 247.879C39.7331 248.32 40.1778 248.942 40.6507 249.665M31.3982 240.321C32.0738 238.855 33.3388 235.539 32.9936 234M40.6507 249.665C40.4022 246.092 42.4162 244.97 42.5601 244.924" stroke="#322E3C"/>
<path d="M31.7254 307.726C32.6357 308.104 34.5956 309.407 35.1526 311.597C35.8487 314.334 33.5264 317.136 34.8836 320.144C35.657 321.858 37.5608 323.901 39.1418 325.378M58.0726 337.106C55.8461 337.133 52.885 334.733 50.4421 332.371M50.4421 332.371C48.999 330.976 47.7367 329.595 46.9134 328.736C45.1399 326.885 42.4486 326.897 41.3246 327.134L40.8033 326.831C40.3659 326.478 39.7802 325.974 39.1418 325.378M50.4421 332.371C50.1478 333.948 49.7381 337.456 50.4539 338.873M39.1418 325.378C40.2662 328.794 38.5865 330.338 38.458 330.415" stroke="#322E3C"/>
<path d="M33.4966 296.248C35.6257 292.95 38.4597 291.713 39.6105 291.507C40.3298 291.85 42.0993 292.331 43.4228 291.507C44.7462 290.682 46.7555 289.514 47.5946 289.033" stroke="#322E3C"/>
<path d="M179.098 321.713C176.969 318.415 174.135 317.179 172.984 316.972C172.265 317.316 170.495 317.797 169.172 316.972C167.848 316.148 165.839 314.98 165 314.499" stroke="#322E3C"/>
<path d="M40.1631 377.91L6.68794 378C4.51653 372.805 3.72975 370.043 3 365.362C3.75428 357.781 4.57828 355.646 5.9078 351.098C5.23577 349.512 5.0809 348.666 5.12766 347.216C5.22637 344.311 5.6675 342.879 6.68794 340.446C7.2406 338.627 7.5605 337.616 8.88653 336.474L7.60993 332.863L10.5177 326.544C10.4957 325.046 9.82782 324.565 9.80851 323.113C9.19867 283.2 11.7925 258.374 12.1489 219.298C10.0668 216.933 9.5063 215.564 9.24113 213.069C10.0895 210.103 10.7804 208.696 12.7163 207.02C11.4695 205.216 11.0785 204.144 10.8723 202.146C11.1237 199.741 11.5742 198.654 12.7163 197L37.1135 199.076C37.4067 202.214 37.3895 203.42 37.1135 207.111C38.0369 208.816 38.2585 209.718 39.0993 211.263C37.8876 215.762 37.2674 218.881 36.0496 223.27C35.7471 230.301 35.5041 232.448 35.1986 237.172C35.4697 240.957 35.8241 243.383 36.0496 248.095C35.3507 250.997 35.0141 252.292 34.3475 255.046V323.474C35.4453 326.198 36.107 328.349 37.1135 331.057C37.1457 333.508 37.1244 334.568 37.1135 337.286L40.1631 342.703C39.7187 346.192 39.5542 347.801 39.0993 351.64C40.5259 356.055 41.0669 359.317 43 365.362C41.7895 370.735 41.1699 373.378 40.1631 377.91Z" fill="#83868F"/>
<path d="M177.908 377.91L212.22 378C214.446 372.805 215.252 370.043 216 365.362C215.227 357.781 214.382 355.646 213.02 351.098C213.708 349.512 213.867 348.666 213.819 347.216C213.718 344.311 213.266 342.879 212.22 340.446C211.653 338.627 211.325 337.616 209.966 336.474L211.275 332.863L208.294 326.544C208.317 325.046 209.001 324.565 209.021 323.113C209.646 283.2 206.988 258.374 206.622 219.298C208.757 216.933 209.331 215.564 209.603 213.069C208.733 210.103 208.025 208.696 206.041 207.02C207.319 205.216 207.72 204.144 207.931 202.146C207.673 199.741 207.211 198.654 206.041 197L181.034 199.076C180.733 202.214 180.751 203.42 181.034 207.111C180.087 208.816 179.86 209.718 178.998 211.263C180.24 215.762 180.876 218.881 182.124 223.27C182.434 230.301 182.683 232.448 182.996 237.172C182.719 240.957 182.355 243.383 182.124 248.095C182.84 250.997 183.186 252.292 183.869 255.046V323.474C182.744 326.198 182.065 328.349 181.034 331.057C181.001 333.508 181.022 334.568 181.034 337.286L177.908 342.703C178.363 346.192 178.532 347.801 178.998 351.64C177.536 356.055 176.981 359.317 175 365.362C176.241 370.735 176.876 373.378 177.908 377.91Z" fill="#83868F"/>
<rect x="6" y="175" width="205" height="24" fill="#5C5E64"/>
<rect y="145" width="216" height="30" fill="#6C6F76"/>
<path d="M101.722 92.3336C99.9282 86.1807 129.992 83.9511 128.048 90.6847C126.105 97.4182 103.516 98.4865 101.722 92.3336Z" fill="#322E3C" stroke="black"/>
<path d="M92.3016 168.123C89.8878 165.393 88.8598 163.548 87.6262 159.604C87.8521 153.925 88.5558 151.115 90.0718 146.275L92.3016 142.152C89.2239 147.48 87.253 150.534 86.3315 155.275C88.0792 161.012 88.1222 162.838 86.3315 163.314C85.375 168.066 85.868 168.417 86.3315 169.978C82.6905 168.876 81.6643 166.901 81.6561 161.115C80.3986 158.424 80.4033 157.318 80.2895 155.275C80.7081 153.373 80.9573 152.299 81.6561 150.26C82.8547 147.623 84.0835 146.365 86.3315 144.145C83.5615 146.27 82.0935 147.088 78.4913 152.87C81.3207 158.708 80.4173 159.336 79.4263 161.115C78.2946 163.524 78.7608 164.541 79.4263 166.405C74.8256 165.229 73.6682 163.175 74.0317 157.13C74.1023 155.813 74.1743 154.709 74.2905 153.677L72.8089 156.031L71.9458 157.13C69.6307 159.042 70.0254 160.107 70.1475 162.008C67.0779 159.503 66.4073 157.603 68.0616 152.87C68.7316 149.888 69.3423 148.415 71.0107 146.275C71.3147 146.078 71.6123 145.887 71.9044 145.7C69.0615 147.149 66.6158 148.19 64.3213 148.817C60.8992 149.886 58.9461 150.299 55.3302 150.26C53.0993 150.192 51.8811 150.05 50.2233 148.13C46.6543 152.779 47.652 155.219 48.8566 159.604C42.5942 154.654 40.9398 150.879 45.7637 139.954C43.4404 144.865 42.2937 147.274 41.8076 148.13C41.1823 148.625 40.3597 149.006 37.9234 148.13C37.7302 153.611 37.3905 155.737 36.7982 159.443L36.7726 159.604C29.8166 150.991 29.7584 146.372 37.9234 138.58C44.3599 137.895 47.9929 137.557 55.3302 138.58C57.1841 140.001 58.5382 140.683 63.0985 141.122C69.9687 139.287 73.3745 137.735 78.4913 133.839C68.8391 137.24 64.3148 137.511 57.7039 135.419C50.057 131.095 47.0498 127.583 52.0215 112.54C55.2458 107.074 57.592 104.36 63.0985 100.379C46.1198 108.874 37.1438 114.058 36.7726 135.419C15.507 145.887 17.2093 161.643 31.1621 197.667C-10.0381 137.774 -19.9749 96.1064 61.4441 27.345C64.2863 40.031 64.6657 47.6015 87.6262 52.6974C108.159 34.9616 118.735 36.188 136.394 52.6974C152.456 49.0081 156.86 42.9466 159.195 27.345C245.722 80.7643 233.267 124.726 187.248 194.231C204.677 165.926 204.948 152.643 187.248 133.839C183.692 125.165 182.004 120.155 176.242 112.54C174.129 100.765 170.741 96.3475 163.151 90.0046C179.704 114.02 181.548 122.397 167.971 125.8C161.855 127.367 157.979 127.785 148.406 125.8C139.19 137.551 147.752 138.851 163.151 141.122C165.546 139.459 166.909 138.573 171.136 141.122C174.632 139.859 176.851 140.082 180.99 141.122C186.268 140.762 188.42 141.171 191.923 142.152C195.675 150.064 194.132 153.171 190.053 158.229C189.735 152.185 189.149 149.381 186.025 147.374C185.05 154.686 183.283 156.478 179.767 158.985C180.771 153.877 180.71 151.267 175.379 148.748C173.988 156.259 172.947 157.252 171.136 159.604C168.673 152.119 167.198 149.483 164.446 147.374H156.534L157.253 154.382C159.618 160.122 158.173 161.854 154.736 164.482C154.613 161.954 154.548 160.539 154.736 158.229C153.726 158.618 153.255 158.578 152.506 158.229C151.693 158.043 151.395 156.063 151.067 150.26C149.356 148.221 148.715 146.827 147.831 144.145C146.591 144.031 146.003 143.732 145.264 142.897C150.134 148.596 151.653 151.967 151.067 158.229C151.625 163.967 150.82 165.404 148.406 166.405C147.161 162.711 146.435 161.245 145.097 159.604C144.462 157.181 144.522 155.234 145.097 151.084C142.596 148.118 141.372 146.025 139.761 143.151C142.94 148.94 144.321 152.737 144.234 158.985C144.053 162.272 143.817 164.095 141.717 167.092C139.476 164.178 138.843 162.394 138.624 158.985C137.672 151.021 135.424 148.561 130.855 144.832C131.147 152.659 130.379 155.085 126.612 154.382C124.809 155.622 123.953 156.783 122.656 159.604C119.228 157.922 119.793 155.501 123.159 149.779C123.845 145.627 124.664 143.593 127.834 141.122C131.513 134.725 132.512 131.067 133.589 124.495C118.795 119.181 110.496 118.932 95.6823 125.8C98.8461 133.068 101.462 137.503 108.126 146.275C117.435 149.221 119.387 151.548 115.966 157.13C114.685 154.906 113.725 154.228 111.435 154.382C105.054 156.599 104.266 152.557 102.372 146.275C94.2842 149.659 93.7731 152.501 95.6823 158.229C93.524 163.546 93.0468 165.257 92.3016 168.123Z" fill="#322E3C"/>
<path d="M94.6753 37.3072C74.3144 37.7243 70.1895 27.5507 64.7529 6.66446C79.402 14.9494 86.9234 17.9694 95.6104 12.2296C96.6081 7.02641 97.519 4.21072 104.817 0.824469C103.461 4.33892 103.181 6.22243 103.235 9.48139C110.602 7.63294 114.153 7.94798 120.066 9.48139C121.042 6.69176 121.153 4.40804 121.145 0C125.467 3.19282 127.254 5.52569 127.475 12.2296C131.727 13.3704 133.546 14.3006 134.308 17.2451C142.19 13.1749 147.168 10.9175 156.534 6.80187C152.557 29.7125 146.518 36.1192 129.705 37.3072C128.595 39.7108 128.955 41.806 130.424 46.1703C128.982 47.0498 127.825 47.3151 125.389 47.5444C120.995 52.8561 118.061 54.0785 112.37 54.5524C106.361 53.8471 103.369 52.0116 98.3437 47.5444C96.5888 47.5215 95.6835 47.2027 94.1718 46.1703C95.6083 42.1298 95.5238 40.2802 94.6753 37.3072Z" fill="#322E3C"/>
<path d="M96.7612 26.1082C101.679 24.4613 103.715 25.2188 106.4 28.7878C103.768 31.442 98.2784 29.7529 96.7612 26.1082Z" fill="#B31919"/>
<path d="M127.043 26.1082C122.125 24.4613 120.089 25.2188 117.405 28.7878C120.036 31.442 125.526 29.7529 127.043 26.1082Z" fill="#B31919"/>
</svg>
