<svg width="3145" height="2050" viewBox="0 0 3145 2050" fill="none" xmlns="http://www.w3.org/2000/svg">
<g id="garg-broad">
<path id="Vector 48" d="M2782.5 1874.5C2782.5 1872.1 1119.44 1871.5 381 1872.5L397 1807V1730.5V1688.5L339.809 1650.05V1615.57L246 1573.59V1520.12V1194.32L303.729 1156.34L274.864 1095.38L303.729 1018.92L407.159 952.46L339.809 929.474C349.628 911.121 348.158 901.527 339.809 885H2896.7V920.979L2810.11 966.452L2940 1003.93L2896.7 1175.83V1291.76V1372.21L2848.6 1446.67L2896.7 1575.59L2810.11 1597.08L2800.86 1731.9L2772 1805C2804.07 1829.15 2782.5 1876.9 2782.5 1874.5Z" fill="#6C6F76"/>
<path id="Vector 49" d="M2790.5 1210C2785 1214.17 2774 1226.6 2774 1243C2774 1263.5 2794.5 1279.5 2790.5 1303C2788.22 1316.39 2778.87 1333.96 2770.73 1347M2663 1461C2678.09 1457.54 2693.97 1435.71 2706.41 1415M2706.41 1415C2713.76 1402.77 2719.92 1390.93 2724 1383.5C2732.8 1367.5 2751 1363.17 2759 1363L2762 1360C2764.35 1356.79 2767.44 1352.26 2770.73 1347M2706.41 1415C2711.11 1425.67 2719.9 1449.8 2717.5 1461M2770.73 1347C2769 1373 2783 1381.17 2784 1381.5" stroke="#322E3C" stroke-width="5"/>
<path id="Vector 71" d="M433.616 1292C428.116 1287.83 417.116 1275.4 417.116 1259C417.116 1238.5 437.616 1222.5 433.616 1199C431.337 1185.61 421.986 1168.04 413.844 1155M306.116 1041C321.204 1044.46 337.082 1066.29 349.526 1087M349.526 1087C356.878 1099.23 363.031 1111.07 367.116 1118.5C375.916 1134.5 394.116 1138.83 402.116 1139L405.116 1142C407.465 1145.21 410.556 1149.74 413.844 1155M349.526 1087C354.223 1076.33 363.016 1052.2 360.616 1041M413.844 1155C412.116 1129 426.116 1120.83 427.116 1120.5" stroke="#322E3C" stroke-width="5"/>
<path id="Vector 70" d="M351.803 1577.53C358.131 1580.28 371.755 1589.77 375.626 1605.71C380.466 1625.63 364.322 1646.01 373.756 1667.91C379.133 1680.38 392.367 1695.25 403.357 1705.99M534.951 1791.34C519.473 1791.54 498.89 1774.08 481.908 1756.89M481.908 1756.89C471.877 1746.74 463.103 1736.69 457.38 1730.43C445.052 1716.96 426.343 1717.05 418.53 1718.77L414.906 1716.57C411.866 1714 407.794 1710.33 403.357 1705.99M481.908 1756.89C479.863 1768.36 477.015 1793.89 481.991 1804.21M403.357 1705.99C411.173 1730.85 399.496 1742.09 398.603 1742.65" stroke="#322E3C" stroke-width="5"/>
<path id="Vector 50" d="M364.116 1494C378.916 1470 398.616 1461 406.616 1459.5C411.616 1462 423.916 1465.5 433.116 1459.5C442.316 1453.5 456.283 1445 462.116 1441.5" stroke="#322E3C" stroke-width="5"/>
<path id="Vector 72" d="M2776 1695.5C2761.2 1671.5 2741.5 1662.5 2733.5 1661C2728.5 1663.5 2716.2 1667 2707 1661C2697.8 1655 2683.83 1646.5 2678 1643" stroke="#322E3C" stroke-width="5"/>
<path id="Vector 54" d="M411.116 1875L175.116 1875.5C159.808 1846.73 154.261 1831.43 149.116 1805.5C154.434 1763.52 160.243 1751.69 169.616 1726.5C164.878 1717.71 163.787 1713.03 164.116 1705C164.812 1688.91 167.922 1680.98 175.116 1667.5C179.012 1657.42 181.268 1651.82 190.616 1645.5L181.616 1625.5L202.116 1590.5C201.961 1582.21 197.252 1579.54 197.116 1571.5C192.817 1350.44 211.103 1212.93 213.616 996.5C198.937 983.4 194.986 975.822 193.116 962C199.097 945.576 203.968 937.781 217.616 928.5C208.826 918.507 206.07 912.568 204.616 901.5C206.389 888.181 209.564 882.159 217.616 873L389.616 884.5C391.683 901.877 391.562 908.559 389.616 929C396.127 938.445 397.688 943.438 403.616 952C395.074 976.917 390.701 994.192 382.116 1018.5C379.984 1057.45 378.27 1069.33 376.116 1095.5C378.028 1116.47 380.526 1129.9 382.116 1156C377.189 1172.07 374.815 1179.25 370.116 1194.5V1573.5C377.856 1588.59 382.521 1600.5 389.616 1615.5C389.843 1629.07 389.693 1634.94 389.616 1650L411.116 1680C407.983 1699.32 406.823 1708.24 403.616 1729.5C413.673 1753.95 417.488 1772.02 431.116 1805.5C422.582 1835.26 418.214 1849.9 411.116 1875Z" fill="#83868F"/>
<path id="Vector 59" d="M2747 1875L2983 1875.5C2998.31 1846.73 3003.86 1831.43 3009 1805.5C3003.68 1763.52 2997.87 1751.69 2988.5 1726.5C2993.24 1717.71 2994.33 1713.03 2994 1705C2993.3 1688.91 2990.19 1680.98 2983 1667.5C2979.1 1657.42 2976.85 1651.82 2967.5 1645.5L2976.5 1625.5L2956 1590.5C2956.15 1582.21 2960.86 1579.54 2961 1571.5C2965.3 1350.44 2947.01 1212.93 2944.5 996.5C2959.18 983.4 2963.13 975.822 2965 962C2959.02 945.576 2954.15 937.781 2940.5 928.5C2949.29 918.507 2952.05 912.568 2953.5 901.5C2951.73 888.181 2948.55 882.159 2940.5 873L2768.5 884.5C2766.43 901.877 2766.55 908.559 2768.5 929C2761.99 938.445 2760.43 943.438 2754.5 952C2763.04 976.917 2767.42 994.192 2776 1018.5C2778.13 1057.45 2779.85 1069.33 2782 1095.5C2780.09 1116.47 2777.59 1129.9 2776 1156C2780.93 1172.07 2783.3 1179.25 2788 1194.5V1573.5C2780.26 1588.59 2775.6 1600.5 2768.5 1615.5C2768.27 1629.07 2768.42 1634.94 2768.5 1650L2747 1680C2750.13 1699.32 2751.29 1708.24 2754.5 1729.5C2744.44 1753.95 2740.63 1772.02 2727 1805.5C2735.53 1835.26 2739.9 1849.9 2747 1875Z" fill="#83868F"/>
<rect id="Rectangle 139" x="174" y="716" width="2816" height="177" fill="#5C5E64"/>
<rect id="Rectangle 141" x="165" y="1873" width="2825" height="177" fill="#5C5E64"/>
<g id="Group 109">
<path id="Vector 67" d="M476.811 453.104C468.402 422.91 609.32 411.969 600.211 445.012C591.102 478.056 485.221 483.298 476.811 453.104Z" fill="#322E3C" stroke="black"/>
<path id="Vector 60" d="M432.652 825.023C421.337 811.628 416.519 802.57 410.736 783.215C411.795 755.347 415.094 741.562 422.2 717.807L432.652 697.577C418.225 723.723 408.987 738.707 404.668 761.974C412.86 790.129 413.061 799.09 404.668 801.422C400.184 824.742 402.495 826.467 404.668 834.126C387.601 828.718 382.791 819.025 382.752 790.633C376.858 777.429 376.88 771.999 376.346 761.974C378.309 752.639 379.476 747.37 382.752 737.362C388.371 724.424 394.13 718.253 404.668 707.355C391.684 717.786 384.802 721.798 367.917 750.174C381.18 778.821 376.946 781.904 372.301 790.633C366.996 802.452 369.181 807.443 372.301 816.594C350.735 810.823 345.31 800.743 347.014 771.078C347.345 764.613 347.682 759.198 348.227 754.13L341.282 765.683L337.236 771.078C326.385 780.46 328.235 785.685 328.807 795.016C314.419 782.721 311.276 773.397 319.03 750.174C322.171 735.541 325.033 728.309 332.853 717.807C334.278 716.843 335.673 715.904 337.042 714.988C323.717 722.095 312.253 727.206 301.498 730.282C285.457 735.53 276.302 737.555 259.353 737.362C248.896 737.033 243.186 736.334 235.415 726.91C218.686 749.726 223.362 761.701 229.009 783.215C199.654 758.928 191.9 740.401 214.511 686.788C203.621 710.887 198.246 722.709 195.968 726.91C193.036 729.341 189.181 731.209 177.761 726.91C176.855 753.808 175.263 764.24 172.486 782.43L172.367 783.215C139.761 740.954 139.488 718.287 177.761 680.045C207.931 676.686 224.96 675.026 259.353 680.045C268.043 687.018 274.39 690.366 295.766 692.52C327.969 683.514 343.933 675.902 367.917 656.781C322.674 673.47 301.467 674.803 270.479 664.536C234.635 643.318 220.54 626.081 243.844 552.263C258.957 525.438 269.955 512.119 295.766 492.586C216.18 534.274 174.107 559.712 172.367 664.536C72.6872 715.904 80.6662 793.221 146.068 970C-47.0525 676.092 -93.6296 471.619 288.011 134.188C301.334 196.442 303.112 233.593 410.736 258.599C506.982 171.565 556.554 177.584 639.329 258.599C714.618 240.495 735.262 210.75 746.207 134.188C1151.79 396.331 1093.41 612.062 877.698 953.142C959.398 814.242 960.668 749.058 877.698 656.781C861.03 614.216 853.119 589.631 826.113 552.263C816.205 494.479 800.328 472.802 764.751 441.675C842.339 559.525 850.981 600.632 787.34 617.334C758.674 625.022 740.504 627.075 695.634 617.334C652.433 674.999 692.57 681.379 764.751 692.52C775.976 684.36 782.365 680.014 802.175 692.52C818.563 686.324 828.967 687.416 848.366 692.52C873.109 690.753 883.193 692.763 899.613 697.577C917.2 736.402 909.97 751.65 890.847 776.472C889.358 746.812 886.613 733.05 871.967 723.201C867.398 759.083 859.115 767.878 842.634 780.181C847.342 755.112 847.054 742.306 822.068 729.944C815.546 766.801 810.665 771.674 802.175 783.215C790.634 746.489 783.719 733.55 770.82 723.201H733.731L737.104 757.591C748.187 785.76 741.413 794.258 725.304 807.153C724.729 794.748 724.423 787.804 725.304 776.472C720.569 778.381 718.363 778.183 714.852 776.472C711.042 775.556 709.646 765.843 708.109 737.362C700.086 727.359 697.082 720.52 692.936 707.355C687.126 706.796 684.368 705.332 680.907 701.23C703.733 729.2 710.855 745.742 708.109 776.472C710.72 804.629 706.95 811.68 695.634 816.594C689.796 798.466 686.396 791.27 680.125 783.215C677.147 771.325 677.426 761.771 680.125 741.408C668.399 726.852 662.662 716.578 655.11 702.471C670.011 730.882 676.488 749.515 676.079 780.181C675.228 796.31 674.124 805.256 664.278 819.965C653.777 805.663 650.809 796.907 649.781 780.181C645.317 741.098 634.782 729.028 613.368 710.727C614.735 749.135 611.133 761.041 593.475 757.591C585.025 763.676 581.013 769.372 574.932 783.215C558.864 774.961 561.516 763.082 577.292 735.002C580.508 714.628 584.348 704.648 599.207 692.52C616.448 661.131 621.132 643.18 626.18 610.928C556.836 584.85 517.933 583.63 448.498 617.334C463.328 652.998 475.59 674.763 506.826 717.807C550.46 732.268 559.611 743.684 543.576 771.078C537.569 760.161 533.069 756.835 522.335 757.591C492.428 768.473 488.733 748.638 479.854 717.807C441.945 734.417 439.549 748.359 448.498 776.472C438.381 802.564 436.144 810.958 432.652 825.023Z" fill="#322E3C"/>
<g id="Group 108">
<g id="garg_face">
<path id="Vector 61" d="M443.777 183.076C348.338 185.123 329.003 135.198 303.52 32.7042C372.185 73.3604 407.441 88.1803 448.16 60.0139C452.836 34.4804 457.106 20.6631 491.316 4.04588C484.959 21.2922 483.645 30.5351 483.898 46.5276C518.433 37.4568 535.074 39.0028 562.793 46.5276C567.368 32.8382 567.886 21.6314 567.85 0C588.11 15.668 596.485 27.116 597.52 60.0139C617.45 65.6119 625.979 70.1765 629.55 84.6263C666.497 64.6528 689.828 53.5752 733.732 33.3785C715.088 145.807 686.781 177.246 607.972 183.076C602.77 194.871 604.46 205.153 611.344 226.569C604.583 230.885 599.16 232.187 587.743 233.312C567.146 259.378 553.393 265.377 526.717 267.702C498.551 264.241 484.527 255.234 460.972 233.312C452.746 233.2 448.503 231.636 441.417 226.569C448.15 206.742 447.754 197.665 443.777 183.076Z" fill="#322E3C"/>
<g id="Group 106">
<g id="Group 105">
<path id="Vector 62" d="M453.554 128.119C476.606 120.037 486.149 123.755 498.733 141.269C486.398 154.294 460.665 146.005 453.554 128.119Z" fill="#B31919"/>
<path id="Vector 63" d="M595.497 128.119C572.445 120.037 562.902 123.755 550.318 141.269C562.653 154.294 588.386 146.005 595.497 128.119Z" fill="#B31919"/>
</g>
</g>
</g>
</g>
</g>
<g id="Group 111">
<path id="Vector 67_2" d="M2575.81 453.104C2567.4 422.91 2708.32 411.969 2699.21 445.012C2690.1 478.056 2584.22 483.298 2575.81 453.104Z" fill="#322E3C" stroke="black"/>
<path id="Vector 60_2" d="M2531.65 825.023C2520.34 811.628 2515.52 802.57 2509.74 783.215C2510.8 755.347 2514.09 741.562 2521.2 717.807L2531.65 697.577C2517.23 723.723 2507.99 738.707 2503.67 761.974C2511.86 790.129 2512.06 799.09 2503.67 801.422C2499.18 824.742 2501.49 826.467 2503.67 834.126C2486.6 828.718 2481.79 819.025 2481.75 790.633C2475.86 777.429 2475.88 771.999 2475.35 761.974C2477.31 752.639 2478.48 747.37 2481.75 737.362C2487.37 724.424 2493.13 718.253 2503.67 707.355C2490.68 717.786 2483.8 721.798 2466.92 750.174C2480.18 778.821 2475.95 781.904 2471.3 790.633C2466 802.452 2468.18 807.443 2471.3 816.594C2449.74 810.823 2444.31 800.743 2446.01 771.078C2446.34 764.613 2446.68 759.198 2447.23 754.13L2440.28 765.683L2436.24 771.078C2425.38 780.46 2427.23 785.685 2427.81 795.016C2413.42 782.721 2410.28 773.397 2418.03 750.174C2421.17 735.541 2424.03 728.309 2431.85 717.807C2433.28 716.843 2434.67 715.904 2436.04 714.988C2422.72 722.095 2411.25 727.206 2400.5 730.282C2384.46 735.53 2375.3 737.555 2358.35 737.362C2347.9 737.033 2342.19 736.334 2334.41 726.91C2317.69 749.726 2322.36 761.701 2328.01 783.215C2298.65 758.928 2290.9 740.401 2313.51 686.788C2302.62 710.887 2297.25 722.709 2294.97 726.91C2292.04 729.341 2288.18 731.209 2276.76 726.91C2275.86 753.808 2274.26 764.24 2271.49 782.43L2271.37 783.215C2238.76 740.954 2238.49 718.287 2276.76 680.045C2306.93 676.686 2323.96 675.026 2358.35 680.045C2367.04 687.018 2373.39 690.366 2394.77 692.52C2426.97 683.514 2442.93 675.902 2466.92 656.781C2421.67 673.47 2400.47 674.803 2369.48 664.536C2333.64 643.318 2319.54 626.081 2342.84 552.263C2357.96 525.438 2368.95 512.119 2394.77 492.586C2315.18 534.274 2273.11 559.712 2271.37 664.536C2171.69 715.904 2179.67 793.221 2245.07 970C2051.95 676.092 2005.37 471.619 2387.01 134.188C2400.33 196.442 2402.11 233.593 2509.74 258.599C2605.98 171.565 2655.55 177.584 2738.33 258.599C2813.62 240.495 2834.26 210.75 2845.21 134.188C3250.79 396.331 3192.41 612.062 2976.7 953.142C3058.4 814.242 3059.67 749.058 2976.7 656.781C2960.03 614.216 2952.12 589.631 2925.11 552.263C2915.21 494.479 2899.33 472.802 2863.75 441.675C2941.34 559.525 2949.98 600.632 2886.34 617.334C2857.67 625.022 2839.5 627.075 2794.63 617.334C2751.43 674.999 2791.57 681.379 2863.75 692.52C2874.98 684.36 2881.36 680.014 2901.18 692.52C2917.56 686.324 2927.97 687.416 2947.37 692.52C2972.11 690.753 2982.19 692.763 2998.61 697.577C3016.2 736.402 3008.97 751.65 2989.85 776.472C2988.36 746.812 2985.61 733.05 2970.97 723.201C2966.4 759.083 2958.11 767.878 2941.63 780.181C2946.34 755.112 2946.05 742.306 2921.07 729.944C2914.55 766.801 2909.67 771.674 2901.18 783.215C2889.63 746.489 2882.72 733.55 2869.82 723.201H2832.73L2836.1 757.591C2847.19 785.76 2840.41 794.258 2824.3 807.153C2823.73 794.748 2823.42 787.804 2824.3 776.472C2819.57 778.381 2817.36 778.183 2813.85 776.472C2810.04 775.556 2808.65 765.843 2807.11 737.362C2799.09 727.359 2796.08 720.52 2791.94 707.355C2786.13 706.796 2783.37 705.332 2779.91 701.23C2802.73 729.2 2809.85 745.742 2807.11 776.472C2809.72 804.629 2805.95 811.68 2794.63 816.594C2788.8 798.466 2785.4 791.27 2779.12 783.215C2776.15 771.325 2776.43 761.771 2779.12 741.408C2767.4 726.852 2761.66 716.578 2754.11 702.471C2769.01 730.882 2775.49 749.515 2775.08 780.181C2774.23 796.31 2773.12 805.256 2763.28 819.965C2752.78 805.663 2749.81 796.907 2748.78 780.181C2744.32 741.098 2733.78 729.028 2712.37 710.727C2713.73 749.135 2710.13 761.041 2692.48 757.591C2684.02 763.676 2680.01 769.372 2673.93 783.215C2657.86 774.961 2660.52 763.082 2676.29 735.002C2679.51 714.628 2683.35 704.648 2698.21 692.52C2715.45 661.131 2720.13 643.18 2725.18 610.928C2655.84 584.85 2616.93 583.63 2547.5 617.334C2562.33 652.998 2574.59 674.763 2605.83 717.807C2649.46 732.268 2658.61 743.684 2642.58 771.078C2636.57 760.161 2632.07 756.835 2621.34 757.591C2591.43 768.473 2587.73 748.638 2578.85 717.807C2540.94 734.417 2538.55 748.359 2547.5 776.472C2537.38 802.564 2535.14 810.958 2531.65 825.023Z" fill="#322E3C"/>
<g id="Group 108_2">
<g id="garg_face_2">
<path id="Vector 61_2" d="M2542.78 183.076C2447.34 185.123 2428 135.198 2402.52 32.7042C2471.19 73.3604 2506.44 88.1803 2547.16 60.0139C2551.84 34.4804 2556.11 20.6631 2590.32 4.04588C2583.96 21.2922 2582.65 30.5351 2582.9 46.5276C2617.43 37.4568 2634.07 39.0028 2661.79 46.5276C2666.37 32.8382 2666.89 21.6314 2666.85 0C2687.11 15.668 2695.49 27.116 2696.52 60.0139C2716.45 65.6119 2724.98 70.1765 2728.55 84.6263C2765.5 64.6528 2788.83 53.5752 2832.73 33.3785C2814.09 145.807 2785.78 177.246 2706.97 183.076C2701.77 194.871 2703.46 205.153 2710.34 226.569C2703.58 230.885 2698.16 232.187 2686.74 233.312C2666.15 259.378 2652.39 265.377 2625.72 267.702C2597.55 264.241 2583.53 255.234 2559.97 233.312C2551.75 233.2 2547.5 231.636 2540.42 226.569C2547.15 206.742 2546.75 197.665 2542.78 183.076Z" fill="#322E3C"/>
<g id="Group 106_2">
<g id="Group 105_2">
<path id="Vector 62_2" d="M2552.55 128.119C2575.61 120.037 2585.15 123.755 2597.73 141.269C2585.4 154.294 2559.67 146.005 2552.55 128.119Z" fill="#B31919"/>
<path id="Vector 63_2" d="M2694.5 128.119C2671.44 120.037 2661.9 123.755 2649.32 141.269C2661.65 154.294 2687.39 146.005 2694.5 128.119Z" fill="#B31919"/>
</g>
</g>
</g>
</g>
</g>
</g>
</svg>
