<svg width="214" height="359" viewBox="0 0 214 359" fill="none" xmlns="http://www.w3.org/2000/svg">
<g id="garg-slim">
<path id="Vector 48" d="M136.378 334.31C135.371 333.997 93.9541 334.186 73.1187 334.322L75.867 324.772L72.0881 314.329L73.1187 307.527L70.1644 303.405V298.664L67.4849 292.893V285.541V240.745L69.1338 235.523L68.3093 227.141L69.1338 216.629L72.0881 207.491L70.1644 204.331C70.4448 201.807 70.4029 200.488 70.1644 198.216H143.199V203.163L140.725 209.415L144.435 214.568L143.199 238.203V254.143V265.204L141.824 275.441L143.199 293.167L140.725 296.122L137.221 314.329L133.648 324.772C134.51 327.896 136.183 333.886 136.378 334.31C136.39 334.314 136.397 334.318 136.397 334.322C136.397 334.342 136.39 334.337 136.378 334.31Z" fill="#6C6F76"/>
<path id="Vector 49" d="M142.374 242.944C141.618 243.516 140.107 245.225 140.107 247.478C140.107 250.295 142.924 252.494 142.374 255.723C142.061 257.563 140.776 259.978 139.657 261.769M124.854 277.434C126.927 276.959 129.109 273.959 130.819 271.113M130.819 271.113C131.829 269.432 132.675 267.805 133.236 266.784C134.445 264.586 136.946 263.99 138.046 263.968L138.458 263.555C138.781 263.114 139.205 262.492 139.657 261.769M130.819 271.113C131.464 272.579 132.673 275.895 132.343 277.434M139.657 261.769C139.42 265.342 141.343 266.464 141.481 266.51" stroke="#322E3C"/>
<path id="Vector 71" d="M76.2109 254.211C75.4551 253.639 73.9436 251.93 73.9436 249.677C73.9436 246.86 76.7605 244.661 76.2109 241.432C75.8976 239.592 74.6128 237.177 73.4939 235.386M58.6909 219.721C60.7641 220.196 62.9459 223.196 64.656 226.042M64.656 226.042C65.6661 227.723 66.5117 229.35 67.073 230.37C68.2822 232.569 70.7831 233.164 71.8824 233.187L72.2947 233.599C72.6174 234.041 73.0421 234.663 73.4939 235.386M64.656 226.042C65.3013 224.576 66.5096 221.26 66.1798 219.721M73.4939 235.386C73.2565 231.813 75.1803 230.691 75.3177 230.645" stroke="#322E3C"/>
<path id="Vector 70" d="M64.9683 293.447C65.8379 293.825 67.71 295.128 68.242 297.318C68.907 300.055 66.6886 302.857 67.985 305.865C68.7238 307.579 70.5423 309.622 72.0525 311.099M90.135 322.827C88.0082 322.854 85.1798 320.454 82.8464 318.092M82.8464 318.092C81.468 316.697 80.2622 315.316 79.4759 314.457C77.7818 312.606 75.211 312.618 74.1374 312.855L73.6395 312.552C73.2217 312.199 72.6622 311.695 72.0525 311.099M82.8464 318.092C82.5653 319.669 82.1739 323.177 82.8577 324.594M72.0525 311.099C73.1265 314.514 71.522 316.059 71.3993 316.136" stroke="#322E3C"/>
<path id="Vector 50" d="M66.6606 281.968C68.6943 278.671 71.4013 277.434 72.5006 277.228C73.1877 277.571 74.8779 278.052 76.142 277.228C77.4062 276.403 79.3254 275.235 80.127 274.754" stroke="#322E3C"/>
<path id="Vector 72" d="M140.038 309.657C138.004 306.359 135.297 305.122 134.198 304.916C133.511 305.26 131.821 305.741 130.557 304.916C129.293 304.092 127.373 302.924 126.572 302.443" stroke="#322E3C"/>
<path id="Vector 54" d="M73.119 334.322L40.6899 334.391C38.5863 330.437 37.8241 328.335 37.1172 324.772C37.8479 319.003 38.6462 317.378 39.9341 313.917C39.2831 312.709 39.1331 312.066 39.1784 310.962C39.274 308.751 39.7013 307.661 40.6899 305.809C41.2253 304.425 41.5352 303.655 42.8198 302.786L41.5831 300.038L44.4 295.229C44.3787 294.089 43.7316 293.723 43.7129 292.618C43.1222 262.241 45.6349 243.347 45.9802 213.606C43.9632 211.806 43.4202 210.765 43.1633 208.866C43.9851 206.609 44.6545 205.538 46.5299 204.262C45.322 202.889 44.9433 202.073 44.7435 200.552C44.9871 198.722 45.4234 197.895 46.5299 196.636L70.1646 198.216C70.4487 200.604 70.432 201.522 70.1646 204.331C71.0593 205.629 71.2739 206.315 72.0884 207.491C70.9145 210.915 70.3137 213.289 69.1341 216.629C68.841 221.981 68.6056 223.614 68.3096 227.21C68.5723 230.091 68.9155 231.937 69.1341 235.523C68.457 237.732 68.1309 238.718 67.4851 240.814V292.893C68.5486 294.966 69.1896 296.603 70.1646 298.664C70.1959 300.529 70.1752 301.336 70.1646 303.405L73.119 307.527C72.6884 310.182 72.5291 311.408 72.0884 314.329C73.4704 317.689 73.9946 320.172 75.8672 324.772C74.6946 328.862 74.0943 330.873 73.119 334.322Z" fill="#83868F"/>
<path id="Vector 59" d="M136.191 334.322L168.62 334.391C170.723 330.437 171.485 328.335 172.192 324.772C171.462 319.003 170.663 317.378 169.375 313.917C170.026 312.709 170.177 312.066 170.131 310.962C170.036 308.751 169.608 307.661 168.62 305.809C168.084 304.425 167.774 303.655 166.49 302.786L167.727 300.038L164.91 295.229C164.931 294.089 165.578 293.723 165.597 292.618C166.187 262.241 163.675 243.347 163.329 213.606C165.346 211.806 165.889 210.765 166.146 208.866C165.324 206.609 164.655 205.538 162.78 204.262C163.988 202.889 164.366 202.073 164.566 200.552C164.322 198.722 163.886 197.895 162.78 196.636L139.145 198.216C138.861 200.604 138.878 201.522 139.145 204.331C138.25 205.629 138.036 206.315 137.221 207.491C138.395 210.915 138.996 213.289 140.176 216.629C140.469 221.981 140.704 223.614 141 227.21C140.737 230.091 140.394 231.937 140.176 235.523C140.853 237.732 141.179 238.718 141.824 240.814V292.893C140.761 294.966 140.12 296.603 139.145 298.664C139.114 300.529 139.134 301.336 139.145 303.405L136.191 307.527C136.621 310.182 136.78 311.408 137.221 314.329C135.839 317.689 135.315 320.172 133.442 324.772C134.615 328.862 135.215 330.873 136.191 334.322Z" fill="#83868F"/>
<rect id="Rectangle 139" x="40.5522" y="175.062" width="130.129" height="24.3218" fill="#5C5E64"/>
<rect id="Rectangle 141" x="39.3154" y="334.047" width="130.129" height="24.3218" fill="#5C5E64"/>
<rect id="Rectangle 140" x="34.7812" y="145.381" width="146.068" height="29.6809" fill="#6C6F76"/>
<g id="Group 109">
<path id="Vector 67" d="M97.1646 92.3336C95.451 86.1807 124.167 83.9511 122.311 90.6847C120.455 97.4182 98.8783 98.4865 97.1646 92.3336Z" fill="#322E3C" stroke="black"/>
<path id="Vector 60" d="M88.1657 168.123C85.86 165.393 84.8781 163.548 83.6998 159.604C83.9156 153.925 84.5877 151.115 86.0358 146.275L88.1657 142.152C85.2259 147.48 83.3433 150.534 82.4631 155.275C84.1325 161.012 84.1735 162.838 82.4631 163.314C81.5495 168.066 82.0203 168.417 82.4631 169.978C78.9852 168.876 78.005 166.901 77.9972 161.115C76.796 158.424 76.8005 157.318 76.6918 155.275C77.0917 153.373 77.3297 152.299 77.9972 150.26C79.1421 147.623 80.3158 146.365 82.4631 144.145C79.8172 146.27 78.4149 147.088 74.9742 152.87C77.6768 158.708 76.8139 159.336 75.8673 161.115C74.7863 163.524 75.2316 164.541 75.8673 166.405C71.4728 165.229 70.3672 163.175 70.7144 157.13C70.7819 155.813 70.8506 154.709 70.9616 153.677L69.5464 156.031L68.7219 157.13C66.5106 159.042 66.8877 160.107 67.0043 162.008C64.0722 159.503 63.4317 157.603 65.0118 152.87C65.6519 149.888 66.2351 148.415 67.8288 146.275C68.1192 146.078 68.4035 145.887 68.6824 145.7C65.9669 147.149 63.6308 148.19 61.4391 148.817C58.1704 149.886 56.3048 150.299 52.8509 150.26C50.72 150.192 49.5564 150.05 47.9728 148.13C44.5638 152.779 45.5167 155.219 46.6674 159.604C40.6856 154.654 39.1053 150.879 43.7131 139.954C41.4938 144.865 40.3986 147.274 39.9342 148.13C39.3369 148.625 38.5512 149.006 36.2241 148.13C36.0396 153.611 35.7151 155.737 35.1493 159.443L35.1248 159.604C28.4806 150.991 28.4249 146.372 36.2241 138.58C42.3722 137.895 45.8424 137.557 52.8509 138.58C54.6217 140.001 55.9151 140.683 60.2711 141.122C66.8335 139.287 70.0867 137.735 74.9742 133.839C65.7545 137.24 61.4329 137.511 55.1182 135.419C47.814 131.095 44.9415 127.583 49.6904 112.54C52.7703 107.074 55.0114 104.36 60.2711 100.379C44.0532 108.874 35.4795 114.058 35.1248 135.419C14.8122 145.887 16.4381 161.643 29.7658 197.667C-9.58834 137.774 -19.0798 96.1064 58.6909 27.345C61.4057 40.031 61.7681 47.6015 83.6998 52.6974C103.313 34.9616 113.415 36.188 130.282 52.6974C145.625 49.0081 149.832 42.9466 152.062 27.345C234.711 80.7643 222.815 124.726 178.857 194.231C195.506 165.926 195.765 152.643 178.857 133.839C175.461 125.165 173.848 120.155 168.345 112.54C166.326 100.765 163.091 96.3475 155.841 90.0046C171.652 114.02 173.413 122.397 160.444 125.8C154.603 127.367 150.9 127.785 141.756 125.8C132.953 137.551 141.132 138.851 155.841 141.122C158.128 139.459 159.43 138.573 163.467 141.122C166.807 139.859 168.927 140.082 172.88 141.122C177.922 140.762 179.977 141.171 183.323 142.152C186.907 150.064 185.434 153.171 181.537 158.229C181.233 152.185 180.674 149.381 177.689 147.374C176.758 154.686 175.07 156.478 171.712 158.985C172.671 153.877 172.613 151.267 167.521 148.748C166.192 156.259 165.197 157.252 163.467 159.604C161.115 152.119 159.706 149.483 157.077 147.374H149.52L150.207 154.382C152.465 160.122 151.085 161.854 147.802 164.482C147.685 161.954 147.623 160.539 147.802 158.229C146.837 158.618 146.388 158.578 145.672 158.229C144.896 158.043 144.611 156.063 144.298 150.26C142.663 148.221 142.051 146.827 141.206 144.145C140.022 144.031 139.46 143.732 138.755 142.897C143.407 148.596 144.858 151.967 144.298 158.229C144.83 163.967 144.062 165.404 141.756 166.405C140.567 162.711 139.874 161.245 138.596 159.604C137.989 157.181 138.046 155.234 138.596 151.084C136.207 148.118 135.037 146.025 133.499 143.151C136.535 148.94 137.855 152.737 137.771 158.985C137.598 162.272 137.373 164.095 135.367 167.092C133.227 164.178 132.622 162.394 132.412 158.985C131.503 151.021 129.356 148.561 124.992 144.832C125.271 152.659 124.537 155.085 120.938 154.382C119.216 155.622 118.399 156.783 117.159 159.604C113.885 157.922 114.426 155.501 117.64 149.779C118.296 145.627 119.078 143.593 122.106 141.122C125.62 134.725 126.574 131.067 127.603 124.495C113.472 119.181 105.544 118.932 91.3948 125.8C94.4169 133.068 96.9157 137.503 103.281 146.275C112.173 149.221 114.037 151.548 110.77 157.13C109.546 154.906 108.629 154.228 106.441 154.382C100.347 156.599 99.5939 152.557 97.7845 146.275C90.0594 149.659 89.5712 152.501 91.3948 158.229C89.3332 163.546 88.8774 165.257 88.1657 168.123Z" fill="#322E3C"/>
<g id="Group 108">
<g id="garg_face">
<path id="Vector 61" d="M90.4327 37.3072C70.9841 37.7243 67.0441 27.5507 61.8511 6.66446C75.8437 14.9494 83.0281 17.9694 91.3258 12.2296C92.2788 7.02641 93.1489 4.21072 100.12 0.824469C98.8247 4.33892 98.557 6.22243 98.6086 9.48139C105.646 7.63294 109.037 7.94798 114.686 9.48139C115.618 6.69176 115.724 4.40804 115.716 0C119.845 3.19282 121.552 5.52569 121.762 12.2296C125.824 13.3704 127.562 14.3006 128.29 17.2451C135.818 13.1749 140.573 10.9175 149.52 6.80187C145.72 29.7125 139.952 36.1192 123.892 37.3072C122.832 39.7108 123.177 41.806 124.579 46.1703C123.202 47.0498 122.097 47.3151 119.77 47.5444C115.573 52.8561 112.77 54.0785 107.334 54.5524C101.595 53.8471 98.7368 52.0116 93.9367 47.5444C92.2604 47.5215 91.3957 47.2027 89.9517 46.1703C91.3238 42.1298 91.2432 40.2802 90.4327 37.3072Z" fill="#322E3C"/>
<g id="Group 106">
<g id="Group 105">
<path id="Vector 62" d="M92.4253 26.1082C97.1229 24.4613 99.0676 25.2188 101.632 28.7878C99.1182 31.442 93.8744 29.7529 92.4253 26.1082Z" fill="#B31919"/>
<path id="Vector 63" d="M121.35 26.1082C116.652 24.4613 114.708 25.2188 112.144 28.7878C114.657 31.442 119.901 29.7529 121.35 26.1082Z" fill="#B31919"/>
</g>
</g>
</g>
</g>
</g>
</g>
</svg>
