<svg width="224" height="402" viewBox="0 0 224 402" fill="none" xmlns="http://www.w3.org/2000/svg">
<rect x="22" y="376" width="183" height="26" fill="#5C5E64"/>
<path d="M174.294 377.969C172.33 377.554 91.5965 377.805 50.9821 377.984L56.3393 365.355L48.9732 351.545L50.9821 342.551L45.2232 337.099V330.83L40 323.198V313.477V254.239L43.2143 247.334L41.6071 236.25L43.2143 222.349L48.9732 210.265L45.2232 206.086C45.7699 202.749 45.6881 201.005 45.2232 198H187.589V204.542L182.768 212.809L190 219.624L187.589 250.878V271.956V286.584L184.911 300.121L187.589 323.562L182.768 327.469L175.938 351.545L168.973 365.355C170.653 369.486 173.913 377.407 174.294 377.969C174.318 377.974 174.33 377.979 174.33 377.984C174.33 378.01 174.318 378.004 174.294 377.969Z" fill="#6C6F76"/>
<path d="M176.674 255C175.883 255.573 174.3 257.281 174.3 259.535C174.3 262.352 177.249 264.55 176.674 267.779C176.346 269.62 175.001 272.034 173.829 273.825M158.332 289.49C160.502 289.015 162.787 286.015 164.577 283.169M164.577 283.169C165.634 281.488 166.52 279.861 167.107 278.841C168.373 276.642 170.992 276.047 172.142 276.024L172.574 275.612C172.912 275.17 173.356 274.549 173.829 273.825M164.577 283.169C165.253 284.635 166.518 287.951 166.172 289.49M173.829 273.825C173.581 277.398 175.595 278.52 175.739 278.566" stroke="#322E3C"/>
<path d="M58.4952 268.49C57.704 267.918 56.1215 266.209 56.1215 263.956C56.1215 261.139 59.0706 258.94 58.4952 255.711C58.1672 253.871 56.8221 251.456 55.6507 249.665M40.1533 234C42.3238 234.475 44.6079 237.475 46.3982 240.321M46.3982 240.321C47.4558 242.002 48.341 243.629 48.9286 244.649C50.1946 246.848 52.8128 247.443 53.9637 247.466L54.3952 247.879C54.7331 248.32 55.1778 248.942 55.6507 249.665M46.3982 240.321C47.0738 238.855 48.3388 235.539 47.9936 234M55.6507 249.665C55.4022 246.092 57.4162 244.97 57.5601 244.924" stroke="#322E3C"/>
<path d="M46.7254 307.726C47.6357 308.104 49.5956 309.407 50.1526 311.597C50.8487 314.334 48.5264 317.136 49.8836 320.144C50.657 321.858 52.5608 323.901 54.1418 325.378M73.0726 337.106C70.8461 337.133 67.885 334.733 65.4421 332.371M65.4421 332.371C63.999 330.976 62.7367 329.595 61.9134 328.736C60.1399 326.885 57.4486 326.897 56.3246 327.134L55.8033 326.831C55.3659 326.478 54.7802 325.974 54.1418 325.378M65.4421 332.371C65.1478 333.948 64.7381 337.456 65.4539 338.873M54.1418 325.378C55.2662 328.794 53.5865 330.338 53.458 330.415" stroke="#322E3C"/>
<path d="M48.4966 296.248C50.6257 292.95 53.4597 291.713 54.6105 291.507C55.3298 291.85 57.0993 292.331 58.4228 291.507C59.7462 290.682 61.7555 289.514 62.5946 289.033" stroke="#322E3C"/>
<path d="M171.352 321.713C169.222 318.415 166.388 317.179 165.238 316.972C164.518 317.316 162.749 317.797 161.425 316.972C160.102 316.148 158.093 314.98 157.254 314.499" stroke="#322E3C"/>
<path d="M55.1631 377.91L21.6879 378C19.5165 372.805 18.7298 370.043 18 365.362C18.7543 357.781 19.5783 355.646 20.9078 351.098C20.2358 349.512 20.0809 348.666 20.1277 347.216C20.2264 344.311 20.6675 342.879 21.6879 340.446C22.2406 338.627 22.5605 337.616 23.8865 336.474L22.6099 332.863L25.5177 326.544C25.4957 325.046 24.8278 324.565 24.8085 323.113C24.1987 283.2 26.7925 258.374 27.1489 219.298C25.0668 216.933 24.5063 215.564 24.2411 213.069C25.0895 210.103 25.7804 208.696 27.7163 207.02C26.4695 205.216 26.0785 204.144 25.8723 202.146C26.1237 199.741 26.5742 198.654 27.7163 197L52.1135 199.076C52.4067 202.214 52.3895 203.42 52.1135 207.111C53.0369 208.816 53.2585 209.718 54.0993 211.263C52.8876 215.762 52.2674 218.881 51.0496 223.27C50.7471 230.301 50.5041 232.448 50.1986 237.172C50.4697 240.957 50.8241 243.383 51.0496 248.095C50.3507 250.997 50.0141 252.292 49.3475 255.046V323.474C50.4453 326.198 51.107 328.349 52.1135 331.057C52.1457 333.508 52.1244 334.568 52.1135 337.286L55.1631 342.703C54.7187 346.192 54.5542 347.801 54.0993 351.64C55.5259 356.055 56.0669 359.317 58 365.362C56.7895 370.735 56.1699 373.378 55.1631 377.91Z" fill="#83868F"/>
<path d="M170.908 377.91L205.22 378C207.446 372.805 208.252 370.043 209 365.362C208.227 357.781 207.382 355.646 206.02 351.098C206.708 349.512 206.867 348.666 206.819 347.216C206.718 344.311 206.266 342.879 205.22 340.446C204.653 338.627 204.325 337.616 202.966 336.474L204.275 332.863L201.294 326.544C201.317 325.046 202.001 324.565 202.021 323.113C202.646 283.2 199.988 258.374 199.622 219.298C201.757 216.933 202.331 215.564 202.603 213.069C201.733 210.103 201.025 208.696 199.041 207.02C200.319 205.216 200.72 204.144 200.931 202.146C200.673 199.741 200.211 198.654 199.041 197L174.034 199.076C173.733 202.214 173.751 203.42 174.034 207.111C173.087 208.816 172.86 209.718 171.998 211.263C173.24 215.762 173.876 218.881 175.124 223.27C175.434 230.301 175.683 232.448 175.996 237.172C175.719 240.957 175.355 243.383 175.124 248.095C175.84 250.997 176.186 252.292 176.869 255.046V323.474C175.744 326.198 175.065 328.349 174.034 331.057C174.001 333.508 174.022 334.568 174.034 337.286L170.908 342.703C171.363 346.192 171.532 347.801 171.998 351.64C170.536 356.055 169.981 359.317 168 365.362C169.241 370.735 169.876 373.378 170.908 377.91Z" fill="#83868F"/>
<rect x="21.147" y="175.062" width="180.685" height="24.3218" fill="#5C5E64"/>
<rect x="15.105" y="145.381" width="193.488" height="29.6809" fill="#6C6F76"/>
<path d="M101.722 92.3336C99.9282 86.1807 129.992 83.9511 128.048 90.6847C126.105 97.4182 103.516 98.4865 101.722 92.3336Z" fill="#322E3C" stroke="black"/>
<path d="M92.3016 168.123C89.8878 165.393 88.8598 163.548 87.6262 159.604C87.8521 153.925 88.5558 151.115 90.0718 146.275L92.3016 142.152C89.2239 147.48 87.253 150.534 86.3315 155.275C88.0792 161.012 88.1222 162.838 86.3315 163.314C85.375 168.066 85.868 168.417 86.3315 169.978C82.6905 168.876 81.6643 166.901 81.6561 161.115C80.3986 158.424 80.4033 157.318 80.2895 155.275C80.7081 153.373 80.9573 152.299 81.6561 150.26C82.8547 147.623 84.0835 146.365 86.3315 144.145C83.5615 146.27 82.0935 147.088 78.4913 152.87C81.3207 158.708 80.4173 159.336 79.4263 161.115C78.2946 163.524 78.7608 164.541 79.4263 166.405C74.8256 165.229 73.6682 163.175 74.0317 157.13C74.1023 155.813 74.1743 154.709 74.2905 153.677L72.8089 156.031L71.9458 157.13C69.6307 159.042 70.0254 160.107 70.1475 162.008C67.0779 159.503 66.4073 157.603 68.0616 152.87C68.7316 149.888 69.3423 148.415 71.0107 146.275C71.3147 146.078 71.6123 145.887 71.9044 145.7C69.0615 147.149 66.6158 148.19 64.3213 148.817C60.8992 149.886 58.9461 150.299 55.3302 150.26C53.0993 150.192 51.8811 150.05 50.2233 148.13C46.6543 152.779 47.652 155.219 48.8566 159.604C42.5942 154.654 40.9398 150.879 45.7637 139.954C43.4404 144.865 42.2937 147.274 41.8076 148.13C41.1823 148.625 40.3597 149.006 37.9234 148.13C37.7302 153.611 37.3905 155.737 36.7982 159.443L36.7726 159.604C29.8166 150.991 29.7584 146.372 37.9234 138.58C44.3599 137.895 47.9929 137.557 55.3302 138.58C57.1841 140.001 58.5382 140.683 63.0985 141.122C69.9687 139.287 73.3745 137.735 78.4913 133.839C68.8391 137.24 64.3148 137.511 57.7039 135.419C50.057 131.095 47.0498 127.583 52.0215 112.54C55.2458 107.074 57.592 104.36 63.0985 100.379C46.1198 108.874 37.1438 114.058 36.7726 135.419C15.507 145.887 17.2093 161.643 31.1621 197.667C-10.0381 137.774 -19.9749 96.1064 61.4441 27.345C64.2863 40.031 64.6657 47.6015 87.6262 52.6974C108.159 34.9616 118.735 36.188 136.394 52.6974C152.456 49.0081 156.86 42.9466 159.195 27.345C245.722 80.7643 233.267 124.726 187.248 194.231C204.677 165.926 204.948 152.643 187.248 133.839C183.692 125.165 182.004 120.155 176.242 112.54C174.129 100.765 170.741 96.3475 163.151 90.0046C179.704 114.02 181.548 122.397 167.971 125.8C161.855 127.367 157.979 127.785 148.406 125.8C139.19 137.551 147.752 138.851 163.151 141.122C165.546 139.459 166.909 138.573 171.136 141.122C174.632 139.859 176.851 140.082 180.99 141.122C186.268 140.762 188.42 141.171 191.923 142.152C195.675 150.064 194.132 153.171 190.053 158.229C189.735 152.185 189.149 149.381 186.025 147.374C185.05 154.686 183.283 156.478 179.767 158.985C180.771 153.877 180.71 151.267 175.379 148.748C173.988 156.259 172.947 157.252 171.136 159.604C168.673 152.119 167.198 149.483 164.446 147.374H156.534L157.253 154.382C159.618 160.122 158.173 161.854 154.736 164.482C154.613 161.954 154.548 160.539 154.736 158.229C153.726 158.618 153.255 158.578 152.506 158.229C151.693 158.043 151.395 156.063 151.067 150.26C149.356 148.221 148.715 146.827 147.831 144.145C146.591 144.031 146.003 143.732 145.264 142.897C150.134 148.596 151.653 151.967 151.067 158.229C151.625 163.967 150.82 165.404 148.406 166.405C147.161 162.711 146.435 161.245 145.097 159.604C144.462 157.181 144.522 155.234 145.097 151.084C142.596 148.118 141.372 146.025 139.761 143.151C142.94 148.94 144.321 152.737 144.234 158.985C144.053 162.272 143.817 164.095 141.717 167.092C139.476 164.178 138.843 162.394 138.624 158.985C137.672 151.021 135.424 148.561 130.855 144.832C131.147 152.659 130.379 155.085 126.612 154.382C124.809 155.622 123.953 156.783 122.656 159.604C119.228 157.922 119.793 155.501 123.159 149.779C123.845 145.627 124.664 143.593 127.834 141.122C131.513 134.725 132.512 131.067 133.589 124.495C118.795 119.181 110.496 118.932 95.6823 125.8C98.8461 133.068 101.462 137.503 108.126 146.275C117.435 149.221 119.387 151.548 115.966 157.13C114.685 154.906 113.725 154.228 111.435 154.382C105.054 156.599 104.266 152.557 102.372 146.275C94.2842 149.659 93.7731 152.501 95.6823 158.229C93.524 163.546 93.0468 165.257 92.3016 168.123Z" fill="#322E3C"/>
<path d="M94.6753 37.3072C74.3144 37.7243 70.1895 27.5507 64.7529 6.66446C79.402 14.9494 86.9234 17.9694 95.6104 12.2296C96.6081 7.02641 97.519 4.21072 104.817 0.824469C103.461 4.33892 103.181 6.22243 103.235 9.48139C110.602 7.63294 114.153 7.94798 120.066 9.48139C121.042 6.69176 121.153 4.40804 121.145 0C125.467 3.19282 127.254 5.52569 127.475 12.2296C131.727 13.3704 133.546 14.3006 134.308 17.2451C142.19 13.1749 147.168 10.9175 156.534 6.80187C152.557 29.7125 146.518 36.1192 129.705 37.3072C128.595 39.7108 128.955 41.806 130.424 46.1703C128.982 47.0498 127.825 47.3151 125.389 47.5444C120.995 52.8561 118.061 54.0785 112.37 54.5524C106.361 53.8471 103.369 52.0116 98.3437 47.5444C96.5888 47.5215 95.6835 47.2027 94.1718 46.1703C95.6083 42.1298 95.5238 40.2802 94.6753 37.3072Z" fill="#322E3C"/>
<path d="M96.7612 26.1082C101.679 24.4613 103.715 25.2188 106.4 28.7878C103.768 31.442 98.2784 29.7529 96.7612 26.1082Z" fill="#B31919"/>
<path d="M127.043 26.1082C122.125 24.4613 120.089 25.2188 117.405 28.7878C120.036 31.442 125.526 29.7529 127.043 26.1082Z" fill="#B31919"/>
</svg>
