<svg width="1551" height="2608" viewBox="0 0 1551 2608" fill="none" xmlns="http://www.w3.org/2000/svg">
<g id="Group 110">
<path id="Vector 48" d="M992.48 2432.91C985.146 2430.63 683.743 2432.01 532.116 2433L552.116 2363.5L524.616 2287.5L532.116 2238L510.616 2208V2173.5L491.116 2131.5V2078V1752L503.116 1714L497.116 1653L503.116 1576.5L524.616 1510L510.616 1487C512.657 1468.64 512.352 1459.04 510.616 1442.5H1042.12V1478.5L1024.12 1524L1051.12 1561.5L1042.12 1733.5V1849.5V1930L1032.12 2004.5L1042.12 2133.5L1024.12 2155L998.616 2287.5L972.616 2363.5C978.888 2386.23 991.059 2429.83 992.48 2432.91C992.57 2432.94 992.616 2432.97 992.616 2433C992.616 2433.14 992.569 2433.11 992.48 2432.91Z" fill="#6C6F76"/>
<path id="Vector 49" d="M1036.12 1768C1030.62 1772.17 1019.62 1784.6 1019.62 1801C1019.62 1821.5 1040.12 1837.5 1036.12 1861C1033.84 1874.39 1024.49 1891.96 1016.34 1905M908.616 2019C923.704 2015.54 939.582 1993.71 952.026 1973M952.026 1973C959.378 1960.77 965.531 1948.93 969.616 1941.5C978.416 1925.5 996.616 1921.17 1004.62 1921L1007.62 1918C1009.97 1914.79 1013.06 1910.26 1016.34 1905M952.026 1973C956.723 1983.67 965.516 2007.8 963.116 2019M1016.34 1905C1014.62 1931 1028.62 1939.17 1029.62 1939.5" stroke="#322E3C" stroke-width="5"/>
<path id="Vector 71" d="M554.616 1850C549.116 1845.83 538.116 1833.4 538.116 1817C538.116 1796.5 558.616 1780.5 554.616 1757C552.337 1743.61 542.986 1726.04 534.844 1713M427.116 1599C442.204 1602.46 458.082 1624.29 470.526 1645M470.526 1645C477.878 1657.23 484.031 1669.07 488.116 1676.5C496.916 1692.5 515.116 1696.83 523.116 1697L526.116 1700C528.465 1703.21 531.556 1707.74 534.844 1713M470.526 1645C475.223 1634.33 484.016 1610.2 481.616 1599M534.844 1713C533.116 1687 547.116 1678.83 548.116 1678.5" stroke="#322E3C" stroke-width="5"/>
<path id="Vector 70" d="M472.803 2135.53C479.131 2138.28 492.755 2147.77 496.626 2163.71C501.466 2183.63 485.322 2204.01 494.756 2225.91C500.133 2238.38 513.367 2253.25 524.357 2263.99M655.951 2349.34C640.473 2349.54 619.89 2332.08 602.908 2314.89M602.908 2314.89C592.877 2304.74 584.103 2294.69 578.38 2288.43C566.052 2274.96 547.343 2275.05 539.53 2276.77L535.906 2274.57C532.866 2272 528.794 2268.33 524.357 2263.99M602.908 2314.89C600.863 2326.36 598.015 2351.89 602.991 2362.21M524.357 2263.99C532.173 2288.85 520.496 2300.09 519.603 2300.65" stroke="#322E3C" stroke-width="5"/>
<path id="Vector 50" d="M485.116 2052C499.916 2028 519.616 2019 527.616 2017.5C532.616 2020 544.916 2023.5 554.116 2017.5C563.316 2011.5 577.283 2003 583.116 1999.5" stroke="#322E3C" stroke-width="5"/>
<path id="Vector 72" d="M1019.12 2253.5C1004.32 2229.5 984.616 2220.5 976.616 2219C971.616 2221.5 959.316 2225 950.116 2219C940.916 2213 926.95 2204.5 921.116 2201" stroke="#322E3C" stroke-width="5"/>
<path id="Vector 54" d="M532.116 2433L296.116 2433.5C280.808 2404.73 275.261 2389.43 270.116 2363.5C275.434 2321.52 281.243 2309.69 290.616 2284.5C285.878 2275.71 284.787 2271.03 285.116 2263C285.812 2246.91 288.922 2238.98 296.116 2225.5C300.012 2215.42 302.268 2209.82 311.616 2203.5L302.616 2183.5L323.116 2148.5C322.961 2140.21 318.252 2137.54 318.116 2129.5C313.817 1908.44 332.103 1770.93 334.616 1554.5C319.937 1541.4 315.986 1533.82 314.116 1520C320.097 1503.58 324.968 1495.78 338.616 1486.5C329.826 1476.51 327.07 1470.57 325.616 1459.5C327.389 1446.18 330.564 1440.16 338.616 1431L510.616 1442.5C512.683 1459.88 512.562 1466.56 510.616 1487C517.127 1496.45 518.688 1501.44 524.616 1510C516.074 1534.92 511.701 1552.19 503.116 1576.5C500.984 1615.45 499.27 1627.33 497.116 1653.5C499.028 1674.47 501.526 1687.9 503.116 1714C498.189 1730.07 495.815 1737.25 491.116 1752.5V2131.5C498.856 2146.59 503.521 2158.5 510.616 2173.5C510.843 2187.07 510.693 2192.94 510.616 2208L532.116 2238C528.983 2257.32 527.823 2266.24 524.616 2287.5C534.673 2311.95 538.488 2330.02 552.116 2363.5C543.582 2393.26 539.214 2407.9 532.116 2433Z" fill="#83868F"/>
<path id="Vector 59" d="M991.116 2433L1227.12 2433.5C1242.42 2404.73 1247.97 2389.43 1253.12 2363.5C1247.8 2321.52 1241.99 2309.69 1232.62 2284.5C1237.35 2275.71 1238.45 2271.03 1238.12 2263C1237.42 2246.91 1234.31 2238.98 1227.12 2225.5C1223.22 2215.42 1220.96 2209.82 1211.62 2203.5L1220.62 2183.5L1200.12 2148.5C1200.27 2140.21 1204.98 2137.54 1205.12 2129.5C1209.42 1908.44 1191.13 1770.93 1188.62 1554.5C1203.3 1541.4 1207.25 1533.82 1209.12 1520C1203.14 1503.58 1198.26 1495.78 1184.62 1486.5C1193.41 1476.51 1196.16 1470.57 1197.62 1459.5C1195.84 1446.18 1192.67 1440.16 1184.62 1431L1012.62 1442.5C1010.55 1459.88 1010.67 1466.56 1012.62 1487C1006.11 1496.45 1004.54 1501.44 998.616 1510C1007.16 1534.92 1011.53 1552.19 1020.12 1576.5C1022.25 1615.45 1023.96 1627.33 1026.12 1653.5C1024.2 1674.47 1021.71 1687.9 1020.12 1714C1025.04 1730.07 1027.42 1737.25 1032.12 1752.5V2131.5C1024.38 2146.59 1019.71 2158.5 1012.62 2173.5C1012.39 2187.07 1012.54 2192.94 1012.62 2208L991.116 2238C994.25 2257.32 995.409 2266.24 998.616 2287.5C988.559 2311.95 984.744 2330.02 971.116 2363.5C979.65 2393.26 984.018 2407.9 991.116 2433Z" fill="#83868F"/>
<rect id="Rectangle 139" x="295.116" y="1274" width="947" height="177" fill="#5C5E64"/>
<rect id="Rectangle 141" x="286.116" y="2431" width="947" height="177" fill="#5C5E64"/>
<rect id="Rectangle 140" x="253.116" y="1058" width="1063" height="216" fill="#6C6F76"/>
<g id="Group 109">
<path id="Vector 67" d="M707.106 671.949C694.635 627.172 903.615 610.946 890.106 659.949C876.598 708.952 719.577 716.726 707.106 671.949Z" fill="#322E3C" stroke="black"/>
<path id="Vector 60" d="M641.618 1223.5C624.839 1203.64 617.693 1190.2 609.118 1161.5C610.688 1120.17 615.58 1099.73 626.118 1064.5L641.618 1034.5C620.224 1073.27 606.523 1095.49 600.118 1130C612.267 1171.75 612.565 1185.04 600.118 1188.5C593.469 1223.08 596.896 1225.64 600.118 1237C574.808 1228.98 567.675 1214.61 567.618 1172.5C558.876 1152.92 558.909 1144.87 558.118 1130C561.028 1116.16 562.76 1108.34 567.618 1093.5C575.95 1074.31 584.491 1065.16 600.118 1049C580.863 1064.47 570.658 1070.42 545.618 1112.5C565.286 1154.98 559.006 1159.55 552.118 1172.5C544.251 1190.03 547.492 1197.43 552.118 1211C520.137 1202.44 512.091 1187.49 514.618 1143.5C515.109 1133.91 515.609 1125.88 516.417 1118.37L506.118 1135.5L500.118 1143.5C484.025 1157.41 486.769 1165.16 487.618 1179C466.28 1160.77 461.619 1146.94 473.118 1112.5C477.776 1090.8 482.02 1080.07 493.618 1064.5C495.731 1063.07 497.8 1061.68 499.831 1060.32C480.069 1070.86 463.067 1078.44 447.118 1083C423.33 1090.78 409.753 1093.79 384.618 1093.5C369.11 1093.01 360.642 1091.98 349.118 1078C324.309 1111.84 331.244 1129.59 339.618 1161.5C296.086 1125.48 284.585 1098.01 318.118 1018.5C301.968 1054.24 293.997 1071.77 290.618 1078C286.271 1081.61 280.553 1084.38 263.618 1078C262.275 1117.89 259.913 1133.36 255.796 1160.34L255.618 1161.5C207.265 1098.83 206.86 1065.21 263.618 1008.5C308.36 1003.52 333.614 1001.06 384.618 1008.5C397.505 1018.84 406.917 1023.81 438.618 1027C486.375 1013.64 510.05 1002.36 545.618 974C478.523 998.749 447.073 1000.73 401.118 985.5C347.962 954.034 327.058 928.471 361.618 819C384.031 779.22 400.34 759.468 438.618 730.5C320.593 792.322 258.199 830.046 255.618 985.5C107.794 1061.68 119.627 1176.34 216.618 1438.5C-69.7783 1002.64 -138.852 699.405 427.118 199C446.875 291.321 449.512 346.415 609.118 383.5C751.848 254.43 825.364 263.355 948.118 383.5C1059.77 356.651 1090.39 312.54 1106.62 199C1708.09 587.754 1621.51 907.682 1301.62 1413.5C1422.78 1207.51 1424.66 1110.85 1301.62 974C1276.9 910.876 1265.17 874.417 1225.12 819C1210.42 733.307 1186.88 701.16 1134.12 655C1249.18 829.77 1262 890.731 1167.62 915.5C1125.11 926.901 1098.16 929.946 1031.62 915.5C967.552 1001.02 1027.07 1010.48 1134.12 1027C1150.77 1014.9 1160.24 1008.45 1189.62 1027C1213.92 1017.81 1229.35 1019.43 1258.12 1027C1294.81 1024.38 1309.77 1027.36 1334.12 1034.5C1360.2 1092.08 1349.48 1114.69 1321.12 1151.5C1318.91 1107.51 1314.84 1087.11 1293.12 1072.5C1286.34 1125.71 1274.06 1138.76 1249.62 1157C1256.6 1119.82 1256.17 1100.83 1219.12 1082.5C1209.45 1137.16 1202.21 1144.38 1189.62 1161.5C1172.5 1107.04 1162.25 1087.85 1143.12 1072.5H1088.12L1093.12 1123.5C1109.55 1165.27 1099.51 1177.88 1075.62 1197C1074.77 1178.6 1074.31 1168.31 1075.62 1151.5C1068.6 1154.33 1065.32 1154.04 1060.12 1151.5C1054.47 1150.14 1052.4 1135.74 1050.12 1093.5C1038.22 1078.67 1033.77 1068.52 1027.62 1049C1019 1048.17 1014.91 1046 1009.78 1039.92C1043.63 1081.4 1054.19 1105.93 1050.12 1151.5C1053.99 1193.26 1048.4 1203.71 1031.62 1211C1022.96 1184.12 1017.92 1173.45 1008.62 1161.5C1004.2 1143.87 1004.62 1129.7 1008.62 1099.5C991.231 1077.92 982.722 1062.68 971.524 1041.76C993.62 1083.89 1003.22 1111.53 1002.62 1157C1001.36 1180.92 999.719 1194.19 985.118 1216C969.545 1194.79 965.143 1181.8 963.618 1157C956.999 1099.04 941.375 1081.14 909.618 1054C911.645 1110.96 906.304 1128.62 880.118 1123.5C867.586 1132.52 861.636 1140.97 852.618 1161.5C828.789 1149.26 832.723 1131.64 856.118 1090C860.887 1059.79 866.582 1044.99 888.618 1027C914.187 980.451 921.133 953.829 928.618 906C825.783 867.326 768.09 865.518 665.118 915.5C687.111 968.389 705.295 1000.67 751.618 1064.5C816.326 1085.95 829.898 1102.88 806.118 1143.5C797.209 1127.31 790.536 1122.38 774.618 1123.5C730.265 1139.64 724.786 1110.22 711.618 1064.5C655.4 1089.13 651.846 1109.81 665.118 1151.5C650.115 1190.19 646.798 1202.64 641.618 1223.5Z" fill="#322E3C"/>
<g id="Group 108">
<g id="garg_face">
<path id="Vector 61" d="M658.116 271.5C516.581 274.535 487.908 200.498 450.116 48.5C551.947 108.793 604.23 130.77 664.616 89C671.552 51.1341 677.884 30.6431 728.616 6C719.188 31.5761 717.241 45.2832 717.616 69C768.83 55.5481 793.509 57.8407 834.616 69C841.401 48.6987 842.168 32.0791 842.116 0C872.161 23.2354 884.582 40.2127 886.116 89C915.672 97.3018 928.32 104.071 933.616 125.5C988.408 95.8794 1023.01 79.4514 1088.12 49.5C1060.47 216.23 1018.49 262.854 901.616 271.5C893.902 288.992 896.408 304.239 906.616 336C896.59 342.401 888.548 344.331 871.616 346C841.072 384.655 820.675 393.551 781.116 397C739.346 391.867 718.549 378.51 683.616 346C671.417 345.833 665.125 343.514 654.616 336C664.602 306.596 664.015 293.136 658.116 271.5Z" fill="#322E3C"/>
<g id="Group 106">
<g id="Group 105">
<path id="Vector 62" d="M672.616 190C706.803 178.014 720.955 183.528 739.616 209.5C721.323 228.816 683.162 216.524 672.616 190Z" fill="#B31919"/>
<path id="Vector 63" d="M883.116 190C848.93 178.014 834.777 183.528 816.116 209.5C834.409 228.816 872.57 216.524 883.116 190Z" fill="#B31919"/>
</g>
</g>
</g>
</g>
</g>
</g>
</svg>
