<svg width="1551" height="2608" viewBox="0 0 1551 2608" fill="none" xmlns="http://www.w3.org/2000/svg">
<g id="garg-normal">
<path id="Vector 48" d="M1212.79 2432.83C1199.13 2430.55 637.767 2431.93 355.362 2432.91L392.612 2363.45L341.394 2287.5L355.362 2238.03L315.319 2208.05V2173.57L279 2131.59V2078.12V1752.32L301.35 1714.34L290.175 1653.38L301.35 1576.92L341.394 1510.46L315.319 1487.47C319.12 1469.12 318.551 1459.53 315.319 1443H1305.24V1478.98L1271.71 1524.45L1322 1561.93L1305.24 1733.83V1849.76V1930.21L1286.61 2004.67L1305.24 2133.59L1271.71 2155.08L1224.22 2287.5L1175.79 2363.45C1187.47 2386.17 1210.14 2429.74 1212.79 2432.83C1212.96 2432.85 1213.04 2432.88 1213.04 2432.91C1213.04 2433.05 1212.96 2433.02 1212.79 2432.83Z" fill="#6C6F76"/>
<path id="Vector 49" d="M1228.12 1768C1222.62 1772.17 1211.62 1784.6 1211.62 1801C1211.62 1821.5 1232.12 1837.5 1228.12 1861C1225.84 1874.39 1216.49 1891.96 1208.34 1905M1100.62 2019C1115.7 2015.54 1131.58 1993.71 1144.03 1973M1144.03 1973C1151.38 1960.77 1157.53 1948.93 1161.62 1941.5C1170.42 1925.5 1188.62 1921.17 1196.62 1921L1199.62 1918C1201.97 1914.79 1205.06 1910.26 1208.34 1905M1144.03 1973C1148.72 1983.67 1157.52 2007.8 1155.12 2019M1208.34 1905C1206.62 1931 1220.62 1939.17 1221.62 1939.5" stroke="#322E3C" stroke-width="5"/>
<path id="Vector 71" d="M406.617 1850C401.117 1845.83 390.117 1833.4 390.117 1817C390.117 1796.5 410.617 1780.5 406.617 1757C404.338 1743.61 394.987 1726.04 386.845 1713M279.117 1599C294.205 1602.46 310.083 1624.29 322.527 1645M322.527 1645C329.879 1657.23 336.032 1669.07 340.117 1676.5C348.917 1692.5 367.117 1696.83 375.117 1697L378.117 1700C380.466 1703.21 383.557 1707.74 386.845 1713M322.527 1645C327.224 1634.33 336.017 1610.2 333.617 1599M386.845 1713C385.117 1687 399.117 1678.83 400.117 1678.5" stroke="#322E3C" stroke-width="5"/>
<path id="Vector 70" d="M324.803 2135.53C331.131 2138.28 344.755 2147.77 348.626 2163.71C353.466 2183.63 337.322 2204.01 346.756 2225.91C352.133 2238.38 365.367 2253.25 376.357 2263.99M507.951 2349.34C492.473 2349.54 471.89 2332.08 454.908 2314.89M454.908 2314.89C444.877 2304.74 436.103 2294.69 430.38 2288.43C418.052 2274.96 399.343 2275.05 391.53 2276.77L387.906 2274.57C384.866 2272 380.794 2268.33 376.357 2263.99M454.908 2314.89C452.863 2326.36 450.015 2351.89 454.991 2362.21M376.357 2263.99C384.173 2288.85 372.496 2300.09 371.603 2300.65" stroke="#322E3C" stroke-width="5"/>
<path id="Vector 50" d="M337.117 2052C351.917 2028 371.617 2019 379.617 2017.5C384.617 2020 396.917 2023.5 406.117 2017.5C415.317 2011.5 429.284 2003 435.117 1999.5" stroke="#322E3C" stroke-width="5"/>
<path id="Vector 72" d="M1191.12 2253.5C1176.32 2229.5 1156.62 2220.5 1148.62 2219C1143.62 2221.5 1131.32 2225 1122.12 2219C1112.92 2213 1098.95 2204.5 1093.12 2201" stroke="#322E3C" stroke-width="5"/>
<path id="Vector 54" d="M384.117 2433L148.117 2433.5C132.809 2404.73 127.262 2389.43 122.117 2363.5C127.435 2321.52 133.244 2309.69 142.617 2284.5C137.879 2275.71 136.788 2271.03 137.117 2263C137.813 2246.91 140.923 2238.98 148.117 2225.5C152.013 2215.42 154.269 2209.82 163.617 2203.5L154.617 2183.5L175.117 2148.5C174.962 2140.21 170.253 2137.54 170.117 2129.5C165.818 1908.44 184.104 1770.93 186.617 1554.5C171.938 1541.4 167.987 1533.82 166.117 1520C172.098 1503.58 176.969 1495.78 190.617 1486.5C181.827 1476.51 179.071 1470.57 177.617 1459.5C179.39 1446.18 182.565 1440.16 190.617 1431L362.617 1442.5C364.684 1459.88 364.563 1466.56 362.617 1487C369.128 1496.45 370.689 1501.44 376.617 1510C368.074 1534.92 363.702 1552.19 355.117 1576.5C352.985 1615.45 351.271 1627.33 349.117 1653.5C351.029 1674.47 353.527 1687.9 355.117 1714C350.19 1730.07 347.816 1737.25 343.117 1752.5V2131.5C350.857 2146.59 355.522 2158.5 362.617 2173.5C362.844 2187.07 362.694 2192.94 362.617 2208L384.117 2238C380.984 2257.32 379.824 2266.24 376.617 2287.5C386.674 2311.95 390.489 2330.02 404.117 2363.5C395.583 2393.26 391.215 2407.9 384.117 2433Z" fill="#83868F"/>
<path id="Vector 59" d="M1188 2433L1424 2433.5C1439.31 2404.73 1444.86 2389.43 1450 2363.5C1444.68 2321.52 1438.87 2309.69 1429.5 2284.5C1434.24 2275.71 1435.33 2271.03 1435 2263C1434.3 2246.91 1431.19 2238.98 1424 2225.5C1420.1 2215.42 1417.85 2209.82 1408.5 2203.5L1417.5 2183.5L1397 2148.5C1397.15 2140.21 1401.86 2137.54 1402 2129.5C1406.3 1908.44 1388.01 1770.93 1385.5 1554.5C1400.18 1541.4 1404.13 1533.82 1406 1520C1400.02 1503.58 1395.15 1495.78 1381.5 1486.5C1390.29 1476.51 1393.05 1470.57 1394.5 1459.5C1392.73 1446.18 1389.55 1440.16 1381.5 1431L1209.5 1442.5C1207.43 1459.88 1207.55 1466.56 1209.5 1487C1202.99 1496.45 1201.43 1501.44 1195.5 1510C1204.04 1534.92 1208.42 1552.19 1217 1576.5C1219.13 1615.45 1220.85 1627.33 1223 1653.5C1221.09 1674.47 1218.59 1687.9 1217 1714C1221.93 1730.07 1224.3 1737.25 1229 1752.5V2131.5C1221.26 2146.59 1216.6 2158.5 1209.5 2173.5C1209.27 2187.07 1209.42 2192.94 1209.5 2208L1188 2238C1191.13 2257.32 1192.29 2266.24 1195.5 2287.5C1185.44 2311.95 1181.63 2330.02 1168 2363.5C1176.53 2393.26 1180.9 2407.9 1188 2433Z" fill="#83868F"/>
<rect id="Rectangle 139" x="147" y="1274" width="1256" height="177" fill="#5C5E64"/>
<rect id="Rectangle 141" x="138" y="2431" width="1294" height="177" fill="#5C5E64"/>
<rect id="Rectangle 140" x="105" y="1058" width="1345" height="216" fill="#6C6F76"/>
<g id="Group 109">
<path id="Vector 67" d="M707.107 671.949C694.636 627.172 903.616 610.946 890.107 659.949C876.599 708.952 719.578 716.726 707.107 671.949Z" fill="#322E3C" stroke="black"/>
<path id="Vector 60" d="M641.618 1223.5C624.839 1203.64 617.693 1190.2 609.118 1161.5C610.688 1120.17 615.58 1099.73 626.118 1064.5L641.618 1034.5C620.224 1073.27 606.523 1095.49 600.118 1130C612.267 1171.75 612.565 1185.04 600.118 1188.5C593.469 1223.08 596.896 1225.64 600.118 1237C574.808 1228.98 567.675 1214.61 567.618 1172.5C558.876 1152.92 558.909 1144.87 558.118 1130C561.028 1116.16 562.76 1108.34 567.618 1093.5C575.95 1074.31 584.491 1065.16 600.118 1049C580.863 1064.47 570.658 1070.42 545.618 1112.5C565.286 1154.98 559.006 1159.55 552.118 1172.5C544.251 1190.03 547.492 1197.43 552.118 1211C520.137 1202.44 512.091 1187.49 514.618 1143.5C515.109 1133.91 515.609 1125.88 516.417 1118.37L506.118 1135.5L500.118 1143.5C484.025 1157.41 486.769 1165.16 487.618 1179C466.28 1160.77 461.619 1146.94 473.118 1112.5C477.776 1090.8 482.02 1080.07 493.618 1064.5C495.731 1063.07 497.8 1061.68 499.831 1060.32C480.069 1070.86 463.067 1078.44 447.118 1083C423.33 1090.78 409.753 1093.79 384.618 1093.5C369.11 1093.01 360.642 1091.98 349.118 1078C324.309 1111.84 331.244 1129.59 339.618 1161.5C296.086 1125.48 284.585 1098.01 318.118 1018.5C301.968 1054.24 293.997 1071.77 290.618 1078C286.271 1081.61 280.553 1084.38 263.618 1078C262.275 1117.89 259.913 1133.36 255.796 1160.34L255.618 1161.5C207.265 1098.83 206.86 1065.21 263.618 1008.5C308.36 1003.52 333.614 1001.06 384.618 1008.5C397.505 1018.84 406.917 1023.81 438.618 1027C486.375 1013.64 510.05 1002.36 545.618 974C478.523 998.749 447.073 1000.73 401.118 985.5C347.962 954.034 327.058 928.471 361.618 819C384.031 779.22 400.34 759.468 438.618 730.5C320.593 792.322 258.199 830.046 255.618 985.5C107.794 1061.68 119.627 1176.34 216.618 1438.5C-69.7783 1002.64 -138.852 699.405 427.118 199C446.875 291.321 449.512 346.415 609.118 383.5C751.848 254.43 825.364 263.355 948.118 383.5C1059.77 356.651 1090.39 312.54 1106.62 199C1708.09 587.754 1621.51 907.682 1301.62 1413.5C1422.78 1207.51 1424.66 1110.85 1301.62 974C1276.9 910.876 1265.17 874.417 1225.12 819C1210.42 733.307 1186.88 701.16 1134.12 655C1249.18 829.77 1262 890.731 1167.62 915.5C1125.11 926.901 1098.16 929.946 1031.62 915.5C967.552 1001.02 1027.07 1010.48 1134.12 1027C1150.77 1014.9 1160.24 1008.45 1189.62 1027C1213.92 1017.81 1229.35 1019.43 1258.12 1027C1294.81 1024.38 1309.77 1027.36 1334.12 1034.5C1360.2 1092.08 1349.48 1114.69 1321.12 1151.5C1318.91 1107.51 1314.84 1087.11 1293.12 1072.5C1286.34 1125.71 1274.06 1138.76 1249.62 1157C1256.6 1119.82 1256.17 1100.83 1219.12 1082.5C1209.45 1137.16 1202.21 1144.38 1189.62 1161.5C1172.5 1107.04 1162.25 1087.85 1143.12 1072.5H1088.12L1093.12 1123.5C1109.55 1165.27 1099.51 1177.88 1075.62 1197C1074.77 1178.6 1074.31 1168.31 1075.62 1151.5C1068.6 1154.33 1065.32 1154.04 1060.12 1151.5C1054.47 1150.14 1052.4 1135.74 1050.12 1093.5C1038.22 1078.67 1033.77 1068.52 1027.62 1049C1019 1048.17 1014.91 1046 1009.78 1039.92C1043.63 1081.4 1054.19 1105.93 1050.12 1151.5C1053.99 1193.26 1048.4 1203.71 1031.62 1211C1022.96 1184.12 1017.92 1173.45 1008.62 1161.5C1004.2 1143.87 1004.62 1129.7 1008.62 1099.5C991.231 1077.92 982.722 1062.68 971.524 1041.76C993.62 1083.89 1003.22 1111.53 1002.62 1157C1001.36 1180.92 999.719 1194.19 985.118 1216C969.545 1194.79 965.143 1181.8 963.618 1157C956.999 1099.04 941.375 1081.14 909.618 1054C911.645 1110.96 906.304 1128.62 880.118 1123.5C867.586 1132.52 861.636 1140.97 852.618 1161.5C828.789 1149.26 832.723 1131.64 856.118 1090C860.887 1059.79 866.582 1044.99 888.618 1027C914.187 980.451 921.133 953.829 928.618 906C825.783 867.326 768.09 865.518 665.118 915.5C687.111 968.389 705.295 1000.67 751.618 1064.5C816.326 1085.95 829.898 1102.88 806.118 1143.5C797.209 1127.31 790.536 1122.38 774.618 1123.5C730.265 1139.64 724.786 1110.22 711.618 1064.5C655.4 1089.13 651.846 1109.81 665.118 1151.5C650.115 1190.19 646.798 1202.64 641.618 1223.5Z" fill="#322E3C"/>
<g id="Group 108">
<g id="garg_face">
<path id="Vector 61" d="M658.117 271.5C516.582 274.535 487.909 200.498 450.117 48.5C551.948 108.793 604.231 130.77 664.617 89C671.552 51.1341 677.885 30.6431 728.617 6C719.189 31.5761 717.242 45.2832 717.617 69C768.831 55.5481 793.51 57.8407 834.617 69C841.402 48.6987 842.169 32.0791 842.117 0C872.162 23.2354 884.583 40.2127 886.117 89C915.673 97.3018 928.321 104.071 933.617 125.5C988.409 95.8794 1023.01 79.4514 1088.12 49.5C1060.47 216.23 1018.49 262.854 901.617 271.5C893.903 288.992 896.409 304.239 906.617 336C896.591 342.401 888.549 344.331 871.617 346C841.073 384.655 820.676 393.551 781.117 397C739.347 391.867 718.55 378.51 683.617 346C671.418 345.833 665.126 343.514 654.617 336C664.602 306.596 664.016 293.136 658.117 271.5Z" fill="#322E3C"/>
<g id="Group 106">
<g id="Group 105">
<path id="Vector 62" d="M672.617 190C706.804 178.014 720.956 183.528 739.617 209.5C721.324 228.816 683.163 216.524 672.617 190Z" fill="#B31919"/>
<path id="Vector 63" d="M883.117 190C848.931 178.014 834.778 183.528 816.117 209.5C834.41 228.816 872.571 216.524 883.117 190Z" fill="#B31919"/>
</g>
</g>
</g>
</g>
</g>
</g>
</svg>
