<svg width="49" height="49" viewBox="0 0 49 49" fill="none" xmlns="http://www.w3.org/2000/svg">
<circle cx="24.2255" cy="24.7768" r="21.6362" stroke="#D9D9D9" stroke-width="5"/>
<path d="M20.9367 32.8217C20.9367 34.1454 20.9564 36.3012 20.9564 36.692L29.0955 36.6794C29.0955 36.1625 29.1152 33.534 29.1152 31.4097C29.1152 29.9283 28.6037 28.9828 28.0003 28.4848C31.6665 28.0877 35.5295 27.6023 35.5295 21.5194C35.5295 19.7923 34.8867 18.9224 33.8374 17.8067C34.0079 17.3969 34.5654 15.7139 33.6669 13.5266C32.2961 13.1105 29.1415 15.2285 29.1415 15.2285C27.8298 14.8755 26.4197 14.6927 25.0227 14.6927C23.6257 14.6927 22.2156 14.8755 20.9039 15.2285C20.9039 15.2285 17.7493 13.1168 16.3785 13.5266C15.48 15.7076 16.0375 17.3969 16.208 17.8067C15.1587 18.9161 14.6602 19.786 14.6602 21.5194C14.6602 27.5834 18.3592 28.094 22.0254 28.4848C21.5532 28.9009 21.1269 29.6006 20.9761 30.6091C20.0382 31.0252 17.6312 31.7248 16.1949 29.2917C15.2964 27.7914 13.6633 27.6654 13.6633 27.6654C12.0565 27.6465 13.5584 28.6361 13.5584 28.6361C14.634 29.1089 15.3816 30.9432 15.3816 30.9432C16.3458 33.7672 20.9367 32.8217 20.9367 32.8217Z" fill="#D9D9D9"/>
</svg>
