<svg width="50" height="49" viewBox="0 0 50 49" fill="none" xmlns="http://www.w3.org/2000/svg">
<circle cx="24.9536" cy="24.7768" r="21.6362" stroke="#D9D9D9" stroke-width="5"/>
<path d="M33.809 25.0735L33.2178 32.2074C33.0666 34.0532 30.2894 33.7993 30.4406 31.9852L30.8989 26.4295L29.0154 26.5338C29.4783 27.4726 29.7395 28.5248 29.7395 29.6405C29.7395 31.509 29.0016 33.2097 27.801 34.4705L25.9999 32.6881C28.6533 29.7992 26.6003 25.1052 22.6087 25.1052C21.4217 25.1052 20.3402 25.5542 19.529 26.2844L17.728 24.5021C18.7362 23.5633 20.024 22.9102 21.4584 22.6789L24.9092 18.7922L22.9569 17.6675L20.5922 19.7537C19.2174 20.9691 17.3568 18.9147 18.7362 17.6947L21.8525 14.9418C22.3016 14.5427 22.9569 14.4792 23.4794 14.7786C23.4794 14.7786 29.8632 18.4475 29.8724 18.4566C30.6148 18.9147 30.821 20.0893 30.1519 20.8421L27.4756 23.8581L32.3379 23.5905C33.1857 23.5406 33.8777 24.2436 33.809 25.0735ZM30.8348 18.0893C32.1225 18.0893 33.1674 17.0552 33.1674 15.7808C33.1674 14.5064 32.1225 13.4724 30.8348 13.4724C29.547 13.4724 28.5021 14.5064 28.5021 15.7808C28.5021 17.0552 29.547 18.0893 30.8348 18.0893ZM22.6132 34.1757C18.9195 34.1757 16.7748 30.0668 18.8233 27.0962L17.0039 25.2957C16.0507 26.4885 15.4824 27.9987 15.4824 29.6359C15.4824 35.5635 22.3887 38.7698 27.0035 35.1916L25.1842 33.3911C24.4509 33.8854 23.5665 34.1757 22.6132 34.1757Z" fill="#D9D9D9"/>
</svg>
